<?xml version="1.0" encoding="utf-8" standalone="no"?>
<!DOCTYPE svg PUBLIC "-//W3C//DTD SVG 1.1//EN"
  "http://www.w3.org/Graphics/SVG/1.1/DTD/svg11.dtd">
<svg xmlns:xlink="http://www.w3.org/1999/xlink" width="226.771654pt" height="133.228346pt" viewBox="0 0 226.771654 133.228346" xmlns="http://www.w3.org/2000/svg" version="1.1">
 <metadata>
  <rdf:RDF xmlns:dc="http://purl.org/dc/elements/1.1/" xmlns:cc="http://creativecommons.org/ns#" xmlns:rdf="http://www.w3.org/1999/02/22-rdf-syntax-ns#">
   <cc:Work>
    <dc:type rdf:resource="http://purl.org/dc/dcmitype/StillImage"/>
    <dc:date>2025-04-14T14:36:41.422235</dc:date>
    <dc:format>image/svg+xml</dc:format>
    <dc:creator>
     <cc:Agent>
      <dc:title>Matplotlib v3.10.1, https://matplotlib.org/</dc:title>
     </cc:Agent>
    </dc:creator>
   </cc:Work>
  </rdf:RDF>
 </metadata>
 <defs>
  <style type="text/css">*{stroke-linejoin: round; stroke-linecap: butt}</style>
 </defs>
 <g id="figure_1">
  <g id="patch_1">
   <path d="M 0 133.228346 
L 226.771654 133.228346 
L 226.771654 0 
L 0 0 
z
" style="fill: #ffffff"/>
  </g>
  <g id="axes_1">
   <g id="patch_2">
    <path d="M 44.378104 101.80723 
L 204.431236 101.80723 
L 204.431236 98.824767 
L 215.101445 104.789692 
L 204.431236 110.754617 
L 204.431236 107.772155 
L 44.378104 107.772155 
z
" clip-path="url(#p4a0fa436c5)" style="fill: #f4a460; stroke: #f4a460; stroke-width: 0.1; stroke-linejoin: miter"/>
   </g>
   <g id="patch_3">
    <path d="M 55.439065 91.453313 
L 55.439065 91.322085 
L 65.477654 91.322085 
L 65.477654 91.453313 
z
" clip-path="url(#p4a0fa436c5)" style="fill: #808080; stroke: #808080; stroke-linejoin: miter"/>
   </g>
   <g id="patch_4">
    <path d="M 55.439065 94.143494 
L 55.439065 88.631904 
L 56.652867 88.631904 
L 56.652867 94.143494 
z
" clip-path="url(#p4a0fa436c5)" style="fill: #2980b9; stroke: #2980b9; stroke-linejoin: miter"/>
   </g>
   <g id="patch_5">
    <path d="M 56.957896 94.143494 
L 56.957896 88.631904 
L 57.21454 88.631904 
L 57.21454 94.143494 
z
" clip-path="url(#p4a0fa436c5)" style="fill: #2980b9; stroke: #2980b9; stroke-linejoin: miter"/>
   </g>
   <g id="patch_6">
    <path d="M 57.490118 94.143494 
L 57.490118 88.631904 
L 57.593196 88.631904 
L 57.593196 94.143494 
z
" clip-path="url(#p4a0fa436c5)" style="fill: #2980b9; stroke: #2980b9; stroke-linejoin: miter"/>
   </g>
   <g id="patch_7">
    <path d="M 58.752304 94.143494 
L 58.752304 88.631904 
L 59.06154 88.631904 
L 59.06154 94.143494 
z
" clip-path="url(#p4a0fa436c5)" style="fill: #2980b9; stroke: #2980b9; stroke-linejoin: miter"/>
   </g>
   <g id="patch_8">
    <path d="M 59.78309 94.143494 
L 59.78309 88.631904 
L 59.957692 88.631904 
L 59.957692 94.143494 
z
" clip-path="url(#p4a0fa436c5)" style="fill: #2980b9; stroke: #2980b9; stroke-linejoin: miter"/>
   </g>
   <g id="patch_9">
    <path d="M 60.319519 94.143494 
L 60.319519 88.631904 
L 60.510951 88.631904 
L 60.510951 94.143494 
z
" clip-path="url(#p4a0fa436c5)" style="fill: #2980b9; stroke: #2980b9; stroke-linejoin: miter"/>
   </g>
   <g id="patch_10">
    <path d="M 61.04738 94.143494 
L 61.04738 88.631904 
L 61.224086 88.631904 
L 61.224086 94.143494 
z
" clip-path="url(#p4a0fa436c5)" style="fill: #2980b9; stroke: #2980b9; stroke-linejoin: miter"/>
   </g>
   <g id="patch_11">
    <path d="M 61.535425 94.143494 
L 61.535425 88.631904 
L 61.724753 88.631904 
L 61.724753 94.143494 
z
" clip-path="url(#p4a0fa436c5)" style="fill: #2980b9; stroke: #2980b9; stroke-linejoin: miter"/>
   </g>
   <g id="patch_12">
    <path d="M 62.029782 94.143494 
L 62.029782 88.631904 
L 62.271701 88.631904 
L 62.271701 94.143494 
z
" clip-path="url(#p4a0fa436c5)" style="fill: #2980b9; stroke: #2980b9; stroke-linejoin: miter"/>
   </g>
   <g id="patch_13">
    <path d="M 63.012184 88.631904 
L 65.477654 88.631904 
L 68.678717 91.387699 
L 65.477654 94.143494 
L 63.012184 94.143494 
z
" clip-path="url(#p4a0fa436c5)" style="fill: #2980b9; stroke: #2980b9; stroke-linejoin: miter"/>
   </g>
   <g id="patch_14">
    <path d="M 151.512491 91.453313 
L 151.512491 91.322085 
L 148.068825 91.322085 
L 148.068825 91.453313 
z
" clip-path="url(#p4a0fa436c5)" style="fill: #808080; stroke: #808080; stroke-linejoin: miter"/>
   </g>
   <g id="patch_15">
    <path d="M 144.867763 91.387699 
L 148.068825 88.631904 
L 149.724393 88.631904 
L 149.724393 94.143494 
L 148.068825 94.143494 
z
" clip-path="url(#p4a0fa436c5)" style="fill: #2980b9; stroke: #2980b9; stroke-linejoin: miter"/>
   </g>
   <g id="patch_16">
    <path d="M 149.938965 94.143494 
L 149.938965 88.631904 
L 150.069391 88.631904 
L 150.069391 94.143494 
z
" clip-path="url(#p4a0fa436c5)" style="fill: #2980b9; stroke: #2980b9; stroke-linejoin: miter"/>
   </g>
   <g id="patch_17">
    <path d="M 150.302896 94.143494 
L 150.302896 88.631904 
L 150.427011 88.631904 
L 150.427011 94.143494 
z
" clip-path="url(#p4a0fa436c5)" style="fill: #2980b9; stroke: #2980b9; stroke-linejoin: miter"/>
   </g>
   <g id="patch_18">
    <path d="M 150.607924 94.143494 
L 150.607924 88.631904 
L 150.894019 88.631904 
L 150.894019 94.143494 
z
" clip-path="url(#p4a0fa436c5)" style="fill: #2980b9; stroke: #2980b9; stroke-linejoin: miter"/>
   </g>
   <g id="patch_19">
    <path d="M 151.138042 94.143494 
L 151.138042 88.631904 
L 151.512491 88.631904 
L 151.512491 94.143494 
z
" clip-path="url(#p4a0fa436c5)" style="fill: #2980b9; stroke: #2980b9; stroke-linejoin: miter"/>
   </g>
   <g id="patch_20">
    <path d="M 166.995311 91.453313 
L 166.995311 91.322085 
L 173.769045 91.322085 
L 173.769045 91.453313 
z
" clip-path="url(#p4a0fa436c5)" style="fill: #808080; stroke: #808080; stroke-linejoin: miter"/>
   </g>
   <g id="patch_21">
    <path d="M 166.995311 94.143494 
L 166.995311 88.631904 
L 167.403418 88.631904 
L 167.403418 94.143494 
z
" clip-path="url(#p4a0fa436c5)" style="fill: #2980b9; stroke: #2980b9; stroke-linejoin: miter"/>
   </g>
   <g id="patch_22">
    <path d="M 167.592746 94.143494 
L 167.592746 88.631904 
L 167.9125 88.631904 
L 167.9125 94.143494 
z
" clip-path="url(#p4a0fa436c5)" style="fill: #2980b9; stroke: #2980b9; stroke-linejoin: miter"/>
   </g>
   <g id="patch_23">
    <path d="M 171.431897 94.143494 
L 171.431897 88.631904 
L 171.560219 88.631904 
L 171.560219 94.143494 
z
" clip-path="url(#p4a0fa436c5)" style="fill: #2980b9; stroke: #2980b9; stroke-linejoin: miter"/>
   </g>
   <g id="patch_24">
    <path d="M 171.760065 94.143494 
L 171.760065 88.631904 
L 171.951497 88.631904 
L 171.951497 94.143494 
z
" clip-path="url(#p4a0fa436c5)" style="fill: #2980b9; stroke: #2980b9; stroke-linejoin: miter"/>
   </g>
   <g id="patch_25">
    <path d="M 172.157654 88.631904 
L 173.769045 88.631904 
L 176.970108 91.387699 
L 173.769045 94.143494 
L 172.157654 94.143494 
z
" clip-path="url(#p4a0fa436c5)" style="fill: #2980b9; stroke: #2980b9; stroke-linejoin: miter"/>
   </g>
   <g id="patch_26">
    <path d="M 199.887891 91.453313 
L 199.887891 91.322085 
L 215.101445 91.322085 
L 215.101445 91.453313 
z
" clip-path="url(#p4a0fa436c5)" style="fill: #808080; stroke: #808080; stroke-linejoin: miter"/>
   </g>
   <g id="patch_27">
    <path d="M 199.887891 94.143494 
L 199.887891 88.631904 
L 200.802976 88.631904 
L 200.802976 94.143494 
z
" clip-path="url(#p4a0fa436c5)" style="fill: #2980b9; stroke: #2980b9; stroke-linejoin: miter"/>
   </g>
   <g id="patch_28">
    <path d="M 203.274758 94.143494 
L 203.274758 88.631904 
L 203.337867 88.631904 
L 203.337867 94.143494 
z
" clip-path="url(#p4a0fa436c5)" style="fill: #2980b9; stroke: #2980b9; stroke-linejoin: miter"/>
   </g>
   <g id="patch_29">
    <path d="M 203.74387 94.143494 
L 203.74387 88.631904 
L 204.103593 88.631904 
L 204.103593 94.143494 
z
" clip-path="url(#p4a0fa436c5)" style="fill: #2980b9; stroke: #2980b9; stroke-linejoin: miter"/>
   </g>
   <g id="patch_30">
    <path d="M 204.381274 94.143494 
L 204.381274 88.631904 
L 204.682096 88.631904 
L 204.682096 94.143494 
z
" clip-path="url(#p4a0fa436c5)" style="fill: #2980b9; stroke: #2980b9; stroke-linejoin: miter"/>
   </g>
   <g id="patch_31">
    <path d="M 204.871423 94.143494 
L 204.871423 88.631904 
L 205.067062 88.631904 
L 205.067062 94.143494 
z
" clip-path="url(#p4a0fa436c5)" style="fill: #2980b9; stroke: #2980b9; stroke-linejoin: miter"/>
   </g>
   <g id="patch_32">
    <path d="M 208.012164 94.143494 
L 208.012164 88.631904 
L 208.153108 88.631904 
L 208.153108 94.143494 
z
" clip-path="url(#p4a0fa436c5)" style="fill: #2980b9; stroke: #2980b9; stroke-linejoin: miter"/>
   </g>
   <g id="patch_33">
    <path d="M 210.946748 94.143494 
L 210.946748 88.631904 
L 211.279123 88.631904 
L 211.279123 94.143494 
z
" clip-path="url(#p4a0fa436c5)" style="fill: #2980b9; stroke: #2980b9; stroke-linejoin: miter"/>
   </g>
   <g id="patch_34">
    <path d="M 212.354086 94.143494 
L 212.354086 88.631904 
L 212.659114 88.631904 
L 212.659114 94.143494 
z
" clip-path="url(#p4a0fa436c5)" style="fill: #2980b9; stroke: #2980b9; stroke-linejoin: miter"/>
   </g>
   <g id="patch_35">
    <path d="M 212.898929 94.143494 
L 212.898929 88.631904 
L 212.955728 88.631904 
L 212.955728 94.143494 
z
" clip-path="url(#p4a0fa436c5)" style="fill: #2980b9; stroke: #2980b9; stroke-linejoin: miter"/>
   </g>
   <g id="patch_36">
    <path d="M 214.245262 94.143494 
L 214.245262 88.631904 
L 214.41776 88.631904 
L 214.41776 94.143494 
z
" clip-path="url(#p4a0fa436c5)" style="fill: #2980b9; stroke: #2980b9; stroke-linejoin: miter"/>
   </g>
   <g id="patch_37">
    <path d="M 214.691234 88.631904 
L 215.101445 88.631904 
L 218.302507 91.387699 
L 215.101445 94.143494 
L 214.691234 94.143494 
z
" clip-path="url(#p4a0fa436c5)" style="fill: #2980b9; stroke: #2980b9; stroke-linejoin: miter"/>
   </g>
   <g id="patch_38">
    <path d="M 83.106192 78.330479 
L 83.106192 78.19925 
L 65.368265 78.19925 
L 65.368265 78.330479 
z
" clip-path="url(#p4a0fa436c5)" style="fill: #808080; stroke: #808080; stroke-linejoin: miter"/>
   </g>
   <g id="patch_39">
    <path d="M 62.167202 78.264864 
L 65.368265 75.509069 
L 66.039327 75.509069 
L 66.039327 81.02066 
L 65.368265 81.02066 
z
" clip-path="url(#p4a0fa436c5)" style="fill: #2980b9; stroke: #2980b9; stroke-linejoin: miter"/>
   </g>
   <g id="patch_40">
    <path d="M 66.672524 81.02066 
L 66.672524 75.509069 
L 66.992278 75.509069 
L 66.992278 81.02066 
z
" clip-path="url(#p4a0fa436c5)" style="fill: #2980b9; stroke: #2980b9; stroke-linejoin: miter"/>
   </g>
   <g id="patch_41">
    <path d="M 69.201104 81.02066 
L 69.201104 75.509069 
L 69.445127 75.509069 
L 69.445127 81.02066 
z
" clip-path="url(#p4a0fa436c5)" style="fill: #2980b9; stroke: #2980b9; stroke-linejoin: miter"/>
   </g>
   <g id="patch_42">
    <path d="M 71.397309 81.02066 
L 71.397309 75.509069 
L 71.704441 75.509069 
L 71.704441 81.02066 
z
" clip-path="url(#p4a0fa436c5)" style="fill: #2980b9; stroke: #2980b9; stroke-linejoin: miter"/>
   </g>
   <g id="patch_43">
    <path d="M 77.908087 81.02066 
L 77.908087 75.509069 
L 78.614912 75.509069 
L 78.614912 81.02066 
z
" clip-path="url(#p4a0fa436c5)" style="fill: #2980b9; stroke: #2980b9; stroke-linejoin: miter"/>
   </g>
   <g id="patch_44">
    <path d="M 79.290182 81.02066 
L 79.290182 75.509069 
L 79.47951 75.509069 
L 79.47951 81.02066 
z
" clip-path="url(#p4a0fa436c5)" style="fill: #2980b9; stroke: #2980b9; stroke-linejoin: miter"/>
   </g>
   <g id="patch_45">
    <path d="M 80.501881 81.02066 
L 80.501881 75.509069 
L 80.653343 75.509069 
L 80.653343 81.02066 
z
" clip-path="url(#p4a0fa436c5)" style="fill: #2980b9; stroke: #2980b9; stroke-linejoin: miter"/>
   </g>
   <g id="patch_46">
    <path d="M 82.264734 81.02066 
L 82.264734 75.509069 
L 82.491928 75.509069 
L 82.491928 81.02066 
z
" clip-path="url(#p4a0fa436c5)" style="fill: #2980b9; stroke: #2980b9; stroke-linejoin: miter"/>
   </g>
   <g id="patch_47">
    <path d="M 82.702292 81.02066 
L 82.702292 75.509069 
L 83.106192 75.509069 
L 83.106192 81.02066 
z
" clip-path="url(#p4a0fa436c5)" style="fill: #2980b9; stroke: #2980b9; stroke-linejoin: miter"/>
   </g>
   <g id="patch_48">
    <path d="M 181.51887 78.330479 
L 181.51887 78.19925 
L 169.206241 78.19925 
L 169.206241 78.330479 
z
" clip-path="url(#p4a0fa436c5)" style="fill: #808080; stroke: #808080; stroke-linejoin: miter"/>
   </g>
   <g id="patch_49">
    <path d="M 166.005179 78.264864 
L 169.206241 75.509069 
L 174.801935 75.509069 
L 174.801935 81.02066 
L 169.206241 81.02066 
z
" clip-path="url(#p4a0fa436c5)" style="fill: #2980b9; stroke: #2980b9; stroke-linejoin: miter"/>
   </g>
   <g id="patch_50">
    <path d="M 175.172176 81.02066 
L 175.172176 75.509069 
L 175.3594 75.509069 
L 175.3594 81.02066 
z
" clip-path="url(#p4a0fa436c5)" style="fill: #2980b9; stroke: #2980b9; stroke-linejoin: miter"/>
   </g>
   <g id="patch_51">
    <path d="M 175.87269 81.02066 
L 175.87269 75.509069 
L 176.356528 75.509069 
L 176.356528 81.02066 
z
" clip-path="url(#p4a0fa436c5)" style="fill: #2980b9; stroke: #2980b9; stroke-linejoin: miter"/>
   </g>
   <g id="patch_52">
    <path d="M 176.785671 81.02066 
L 176.785671 75.509069 
L 177.057041 75.509069 
L 177.057041 81.02066 
z
" clip-path="url(#p4a0fa436c5)" style="fill: #2980b9; stroke: #2980b9; stroke-linejoin: miter"/>
   </g>
   <g id="patch_53">
    <path d="M 177.576641 81.02066 
L 177.576641 75.509069 
L 177.726 75.509069 
L 177.726 81.02066 
z
" clip-path="url(#p4a0fa436c5)" style="fill: #2980b9; stroke: #2980b9; stroke-linejoin: miter"/>
   </g>
   <g id="patch_54">
    <path d="M 179.019741 81.02066 
L 179.019741 75.509069 
L 179.270075 75.509069 
L 179.270075 81.02066 
z
" clip-path="url(#p4a0fa436c5)" style="fill: #2980b9; stroke: #2980b9; stroke-linejoin: miter"/>
   </g>
   <g id="patch_55">
    <path d="M 179.785468 81.02066 
L 179.785468 75.509069 
L 180.040009 75.509069 
L 180.040009 81.02066 
z
" clip-path="url(#p4a0fa436c5)" style="fill: #2980b9; stroke: #2980b9; stroke-linejoin: miter"/>
   </g>
   <g id="patch_56">
    <path d="M 180.593267 81.02066 
L 180.593267 75.509069 
L 180.793113 75.509069 
L 180.793113 81.02066 
z
" clip-path="url(#p4a0fa436c5)" style="fill: #2980b9; stroke: #2980b9; stroke-linejoin: miter"/>
   </g>
   <g id="patch_57">
    <path d="M 181.173873 81.02066 
L 181.173873 75.509069 
L 181.51887 75.509069 
L 181.51887 81.02066 
z
" clip-path="url(#p4a0fa436c5)" style="fill: #2980b9; stroke: #2980b9; stroke-linejoin: miter"/>
   </g>
   <g id="patch_58">
    <path d="M 215.101445 65.421188 
L 44.378104 65.421188 
L 44.378104 64.968347 
L 44.719551 65.142156 
L 45.060997 65.13428 
L 45.402444 65.176608 
L 45.743891 65.215411 
L 46.085337 65.268513 
L 46.426784 65.316855 
L 46.768231 65.390696 
L 47.109678 65.421188 
L 47.451124 65.412878 
L 47.792571 65.34719 
L 48.134018 65.256709 
L 48.475464 65.320023 
L 48.816911 65.327272 
L 49.158358 65.340062 
L 49.499804 65.34596 
L 49.841251 65.333958 
L 50.182698 65.353336 
L 50.524144 65.323835 
L 50.865591 65.258217 
L 51.207038 65.239504 
L 51.548484 65.147319 
L 51.889931 64.763191 
L 52.231378 64.235484 
L 52.572824 55.115176 
L 52.914271 43.730552 
L 53.255718 47.608336 
L 53.597164 59.497338 
L 53.938611 62.225037 
L 54.280058 63.100423 
L 54.621505 62.976766 
L 54.962951 63.003318 
L 55.304398 63.013018 
L 55.645845 63.934079 
L 55.987291 63.629478 
L 56.328738 63.833495 
L 56.670185 64.431418 
L 57.011631 64.616047 
L 57.353078 64.804735 
L 57.694525 65.102083 
L 58.035971 65.25721 
L 58.377418 65.300971 
L 58.718865 65.360953 
L 59.060311 65.376445 
L 59.401758 65.394791 
L 59.743205 65.351362 
L 60.084651 65.324327 
L 60.426098 65.364152 
L 60.767545 65.35546 
L 61.108991 65.277126 
L 61.450438 65.332438 
L 61.791885 65.367426 
L 62.133332 65.380366 
L 62.474778 65.388238 
L 62.816225 65.402857 
L 63.157672 65.369063 
L 63.499118 65.343998 
L 63.840565 65.284353 
L 64.182012 65.241482 
L 64.523458 65.107246 
L 64.864905 65.070564 
L 65.206352 65.295306 
L 65.547798 65.26975 
L 65.889245 65.262366 
L 66.230692 65.306344 
L 66.572138 65.188372 
L 66.913585 65.315716 
L 67.255032 65.21277 
L 67.596478 64.706521 
L 67.937925 64.400201 
L 68.279372 63.841068 
L 68.620818 65.268269 
L 68.962265 65.361934 
L 69.303712 65.279963 
L 69.645158 65.280068 
L 69.986605 65.323584 
L 70.328052 65.375742 
L 70.669499 65.358253 
L 71.010945 65.363661 
L 71.352392 65.387254 
L 71.693839 65.36254 
L 72.035285 65.341775 
L 72.376732 65.358737 
L 72.718179 65.364255 
L 73.059625 65.32064 
L 73.401072 65.330717 
L 73.742519 65.386249 
L 74.083965 65.421188 
L 74.425412 65.407662 
L 74.766859 65.410189 
L 75.108305 65.421188 
L 75.449752 65.421188 
L 75.791199 65.421188 
L 76.132645 65.421188 
L 76.474092 65.396595 
L 76.815539 65.372026 
L 77.156985 65.348864 
L 77.498432 65.267046 
L 77.839879 65.263353 
L 78.181326 65.290225 
L 78.522772 65.329 
L 78.864219 65.341777 
L 79.205666 65.351553 
L 79.547112 65.294082 
L 79.888559 65.177072 
L 80.230006 64.578238 
L 80.571452 64.720046 
L 80.912899 65.035705 
L 81.254346 65.143624 
L 81.595792 65.203122 
L 81.937239 65.388736 
L 82.278686 65.275886 
L 82.620132 65.142642 
L 82.961579 64.843456 
L 83.303026 65.09446 
L 83.644472 65.246975 
L 83.985919 65.284007 
L 84.327366 65.198207 
L 84.668812 65.201764 
L 85.010259 65.16477 
L 85.351706 65.009894 
L 85.693153 65.060797 
L 86.034599 65.31498 
L 86.376046 65.300482 
L 86.717493 65.375738 
L 87.058939 65.348663 
L 87.400386 65.346445 
L 87.741833 65.347922 
L 88.083279 65.348364 
L 88.424726 65.273679 
L 88.766173 65.208776 
L 89.107619 65.295839 
L 89.449066 65.289655 
L 89.790513 65.350385 
L 90.131959 65.271164 
L 90.473406 65.242456 
L 90.814853 65.363162 
L 91.156299 65.35229 
L 91.497746 65.391436 
L 91.839193 65.329481 
L 92.180639 65.28843 
L 92.522086 65.394803 
L 92.863533 65.385048 
L 93.20498 65.362183 
L 93.546426 65.339344 
L 93.887873 64.986538 
L 94.22932 64.895332 
L 94.570766 65.062987 
L 94.912213 64.536395 
L 95.25366 65.13159 
L 95.595106 65.338844 
L 95.936553 65.367588 
L 96.278 65.3789 
L 96.619446 65.421188 
L 96.960893 65.357751 
L 97.30234 65.193781 
L 97.643786 65.105028 
L 97.985233 65.1749 
L 98.32668 65.245156 
L 98.668126 65.379139 
L 99.009573 65.387958 
L 99.35102 65.421188 
L 99.692466 65.370051 
L 100.033913 65.374267 
L 100.37536 65.351369 
L 100.716806 65.229672 
L 101.058253 65.194438 
L 101.3997 65.166493 
L 101.741147 65.255732 
L 102.082593 65.366947 
L 102.42404 65.279826 
L 102.765487 65.322599 
L 103.106933 65.396108 
L 103.44838 65.373542 
L 103.789827 65.321373 
L 104.131273 65.345958 
L 104.47272 65.320765 
L 104.814167 65.351123 
L 105.155613 65.277368 
L 105.49706 65.31954 
L 105.838507 65.346444 
L 106.179953 65.367106 
L 106.5214 65.251855 
L 106.862847 65.194764 
L 107.204293 65.309571 
L 107.54574 65.105265 
L 107.887187 65.170427 
L 108.228633 65.398816 
L 108.57008 65.415286 
L 108.911527 65.364005 
L 109.252974 65.362183 
L 109.59442 65.420696 
L 109.935867 65.421188 
L 110.277314 65.421188 
L 110.61876 65.345709 
L 110.960207 65.197862 
L 111.301654 65.303429 
L 111.6431 65.421188 
L 111.984547 65.188093 
L 112.325994 65.154689 
L 112.66744 65.369314 
L 113.008887 65.382586 
L 113.350334 65.363171 
L 113.69178 65.299736 
L 114.033227 65.268772 
L 114.374674 65.410681 
L 114.71612 65.421188 
L 115.057567 65.421188 
L 115.399014 65.399435 
L 115.74046 65.405695 
L 116.081907 65.409384 
L 116.423354 65.391867 
L 116.764801 65.255487 
L 117.106247 65.238033 
L 117.447694 65.304639 
L 117.789141 65.33759 
L 118.130587 65.312761 
L 118.472034 65.380865 
L 118.813481 65.387252 
L 119.154927 65.37841 
L 119.496374 65.371034 
L 119.837821 65.316606 
L 120.179267 65.398079 
L 120.520714 65.421188 
L 120.862161 65.382583 
L 121.203607 65.382824 
L 121.545054 65.364638 
L 121.886501 65.224982 
L 122.227947 65.133802 
L 122.569394 65.252779 
L 122.910841 64.927145 
L 123.252287 63.987922 
L 123.593734 62.719613 
L 123.935181 63.859156 
L 124.276628 65.16969 
L 124.618074 64.927045 
L 124.959521 64.883781 
L 125.300968 65.137995 
L 125.642414 65.124945 
L 125.983861 65.214915 
L 126.325308 65.361325 
L 126.666754 65.397087 
L 127.008201 65.421188 
L 127.349648 65.421188 
L 127.691094 65.421188 
L 128.032541 65.421188 
L 128.373988 65.420699 
L 128.715434 65.372515 
L 129.056881 65.047998 
L 129.398328 64.191693 
L 129.739774 64.09732 
L 130.081221 64.286128 
L 130.422668 64.812973 
L 130.764114 64.983337 
L 131.105561 64.883773 
L 131.447008 65.260405 
L 131.788455 65.297063 
L 132.129901 65.159363 
L 132.471348 65.115611 
L 132.812795 65.116991 
L 133.154241 65.202634 
L 133.495688 65.195253 
L 133.837135 65.170742 
L 134.178581 65.248351 
L 134.520028 65.279333 
L 134.861475 65.201898 
L 135.202921 65.129699 
L 135.544368 65.276631 
L 135.885815 65.373254 
L 136.227261 65.351063 
L 136.568708 65.397088 
L 136.910155 65.350873 
L 137.251601 65.207394 
L 137.593048 65.218856 
L 137.934495 65.267289 
L 138.275941 65.349596 
L 138.617388 65.224023 
L 138.958835 65.23459 
L 139.300281 65.286551 
L 139.641728 65.270979 
L 139.983175 65.085119 
L 140.324622 65.24934 
L 140.666068 65.230358 
L 141.007515 65.012348 
L 141.348962 64.900245 
L 141.690408 64.390829 
L 142.031855 64.198853 
L 142.373302 63.410432 
L 142.714748 55.205033 
L 143.056195 55.692417 
L 143.397642 62.789922 
L 143.739088 64.965258 
L 144.080535 64.865581 
L 144.421982 65.112413 
L 144.763428 65.299506 
L 145.104875 65.14461 
L 145.446322 65.122242 
L 145.787768 65.282033 
L 146.129215 65.389903 
L 146.470662 65.290391 
L 146.812108 65.030301 
L 147.153555 65.251374 
L 147.495002 65.281054 
L 147.836449 65.260895 
L 148.177895 65.341538 
L 148.519342 65.364149 
L 148.860789 65.255734 
L 149.202235 64.914924 
L 149.543682 64.848127 
L 149.885129 64.749545 
L 150.226575 65.095732 
L 150.568022 65.279819 
L 150.909469 65.358495 
L 151.250915 65.325069 
L 151.592362 65.230606 
L 151.933809 65.239499 
L 152.275255 65.302193 
L 152.616702 65.227668 
L 152.958149 65.276381 
L 153.299595 65.347922 
L 153.641042 64.888539 
L 153.982489 64.480595 
L 154.323935 64.206474 
L 154.665382 63.078012 
L 155.006829 61.041973 
L 155.348276 64.290799 
L 155.689722 64.809858 
L 156.031169 64.973257 
L 156.372616 65.202627 
L 156.714062 65.034969 
L 157.055509 65.086693 
L 157.396956 65.239016 
L 157.738402 65.10848 
L 158.079849 65.292907 
L 158.421296 65.318672 
L 158.762742 65.358739 
L 159.104189 65.325901 
L 159.445636 65.263842 
L 159.787082 65.148056 
L 160.128529 65.299509 
L 160.469976 65.241966 
L 160.811422 65.301951 
L 161.152869 65.314413 
L 161.494316 65.359974 
L 161.835762 65.293101 
L 162.177209 65.373249 
L 162.518656 65.307565 
L 162.860103 65.071847 
L 163.201549 64.54205 
L 163.542996 64.763193 
L 163.884443 64.976457 
L 164.225889 64.834361 
L 164.567336 64.286003 
L 164.908783 63.157458 
L 165.250229 63.312096 
L 165.591676 56.326536 
L 165.933123 46.685442 
L 166.274569 52.702219 
L 166.616016 64.370056 
L 166.957463 61.456713 
L 167.298909 61.647734 
L 167.640356 62.520726 
L 167.981803 64.282591 
L 168.323249 63.975627 
L 168.664696 64.776343 
L 169.006143 64.995803 
L 169.347589 64.778064 
L 169.689036 65.106757 
L 170.030483 65.270918 
L 170.371929 65.134536 
L 170.713376 65.169442 
L 171.054823 65.261146 
L 171.39627 65.323828 
L 171.737716 65.340295 
L 172.079163 65.188824 
L 172.42061 65.057588 
L 172.762056 64.566637 
L 173.103503 63.978823 
L 173.44495 64.962813 
L 173.786396 65.328017 
L 174.127843 65.323833 
L 174.46929 65.250888 
L 174.810736 65.13404 
L 175.152183 64.983837 
L 175.49363 64.999468 
L 175.835076 65.106996 
L 176.176523 65.061765 
L 176.51797 65.125055 
L 176.859416 65.051439 
L 177.200863 65.019729 
L 177.54231 64.969571 
L 177.883756 64.910529 
L 178.225203 65.087332 
L 178.56665 65.136749 
L 178.908097 65.231581 
L 179.249543 65.224261 
L 179.59099 65.180507 
L 179.932437 64.889025 
L 180.273883 64.614822 
L 180.61533 64.82354 
L 180.956777 63.229011 
L 181.298223 58.148888 
L 181.63967 58.12848 
L 181.981117 63.387096 
L 182.322563 64.820098 
L 182.66401 65.216639 
L 183.005457 65.309077 
L 183.346903 65.304148 
L 183.68835 65.158382 
L 184.029797 65.155431 
L 184.371243 65.18418 
L 184.71269 65.22082 
L 185.054137 65.09594 
L 185.395583 65.153641 
L 185.73703 65.090035 
L 186.078477 65.355796 
L 186.419924 65.352045 
L 186.76137 65.347433 
L 187.102817 65.329728 
L 187.444264 65.288756 
L 187.78571 65.289908 
L 188.127157 65.291869 
L 188.468604 65.332681 
L 188.81005 65.312698 
L 189.151497 65.316704 
L 189.492944 65.291871 
L 189.83439 65.122119 
L 190.175837 64.926307 
L 190.517284 65.003008 
L 190.85873 65.048824 
L 191.200177 65.273434 
L 191.541624 65.31351 
L 191.88307 65.357907 
L 192.224517 65.411351 
L 192.565964 65.309817 
L 192.90741 65.270675 
L 193.248857 65.129616 
L 193.590304 64.922858 
L 193.931751 64.864353 
L 194.273197 65.050772 
L 194.614644 65.394628 
L 194.956091 65.335879 
L 195.297537 65.275075 
L 195.638984 65.384558 
L 195.980431 65.345959 
L 196.321877 65.24331 
L 196.663324 65.329976 
L 197.004771 65.360218 
L 197.346217 65.249662 
L 197.687664 65.225979 
L 198.029111 65.140923 
L 198.370557 64.501027 
L 198.712004 63.218677 
L 199.053451 60.350173 
L 199.394897 59.696472 
L 199.736344 58.001696 
L 200.077791 62.571122 
L 200.419237 64.891149 
L 200.760684 65.081563 
L 201.102131 65.019971 
L 201.443577 65.06152 
L 201.785024 65.064213 
L 202.126471 64.775606 
L 202.467918 64.841491 
L 202.809364 65.009732 
L 203.150811 65.048979 
L 203.492258 65.016531 
L 203.833704 64.361019 
L 204.175151 64.316129 
L 204.516598 64.914756 
L 204.858044 65.160096 
L 205.199491 65.184667 
L 205.540938 65.302933 
L 205.882384 65.276386 
L 206.223831 65.241602 
L 206.565278 65.307601 
L 206.906724 65.333913 
L 207.248171 65.297308 
L 207.589618 65.223286 
L 207.931064 65.176328 
L 208.272511 65.140691 
L 208.613958 65.151251 
L 208.955404 65.171903 
L 209.296851 65.385259 
L 209.638298 65.378656 
L 209.979745 65.218608 
L 210.321191 65.062259 
L 210.662638 65.039539 
L 211.004085 64.962938 
L 211.345531 64.895084 
L 211.686978 64.915905 
L 212.028425 64.688082 
L 212.369871 64.359634 
L 212.711318 64.278919 
L 213.052765 64.690051 
L 213.394211 64.649729 
L 213.735658 64.366394 
L 214.077105 64.196886 
L 214.418551 63.952271 
L 214.759998 64.734604 
z
" clip-path="url(#p4a0fa436c5)" style="fill: #e74c3c"/>
   </g>
   <g id="patch_59">
    <path d="M 215.101445 37.982534 
L 44.378104 37.982534 
L 44.378104 37.32246 
L 44.719551 37.685688 
L 45.060997 37.532317 
L 45.402444 37.543592 
L 45.743891 37.669367 
L 46.085337 37.531509 
L 46.426784 37.761731 
L 46.768231 37.946657 
L 47.109678 37.982534 
L 47.451124 37.967099 
L 47.792571 37.870918 
L 48.134018 37.895548 
L 48.475464 37.97322 
L 48.816911 37.915882 
L 49.158358 37.902776 
L 49.499804 37.977715 
L 49.841251 37.982534 
L 50.182698 37.955758 
L 50.524144 37.930066 
L 50.865591 37.781953 
L 51.207038 37.759293 
L 51.548484 37.734941 
L 51.889931 37.324379 
L 52.231378 36.879469 
L 52.572824 28.120766 
L 52.914271 16.530315 
L 53.255718 21.557501 
L 53.597164 33.29028 
L 53.938611 36.099326 
L 54.280058 36.755268 
L 54.621505 36.761423 
L 54.962951 36.080738 
L 55.304398 36.265588 
L 55.645845 36.454137 
L 55.987291 36.14712 
L 56.328738 36.8458 
L 56.670185 37.335575 
L 57.011631 37.297028 
L 57.353078 37.389559 
L 57.694525 37.697739 
L 58.035971 37.830491 
L 58.377418 37.896354 
L 58.718865 37.917224 
L 59.060311 37.948803 
L 59.401758 37.939166 
L 59.743205 37.888051 
L 60.084651 37.882433 
L 60.426098 37.936236 
L 60.767545 37.918688 
L 61.108991 37.911868 
L 61.450438 37.919368 
L 61.791885 37.931996 
L 62.133332 37.896877 
L 62.474778 37.915622 
L 62.816225 37.955923 
L 63.157672 37.913742 
L 63.499118 37.795439 
L 63.840565 37.798971 
L 64.182012 37.915351 
L 64.523458 37.733067 
L 64.864905 37.597855 
L 65.206352 37.812837 
L 65.547798 37.937028 
L 65.889245 37.900356 
L 66.230692 37.872393 
L 66.572138 37.875463 
L 66.913585 37.955758 
L 67.255032 37.674473 
L 67.596478 37.288734 
L 67.937925 36.801036 
L 68.279372 36.350715 
L 68.620818 37.643938 
L 68.962265 37.906255 
L 69.303712 37.947941 
L 69.645158 37.896346 
L 69.986605 37.875999 
L 70.328052 37.760938 
L 70.669499 37.83826 
L 71.010945 37.909994 
L 71.352392 37.8685 
L 71.693839 37.917629 
L 72.035285 37.958704 
L 72.376732 37.955223 
L 72.718179 37.926145 
L 73.059625 37.795434 
L 73.401072 37.846824 
L 73.742519 37.885437 
L 74.083965 37.978518 
L 74.425412 37.96272 
L 74.766859 37.939433 
L 75.108305 37.918031 
L 75.449752 37.856194 
L 75.791199 37.91071 
L 76.132645 37.935418 
L 76.474092 37.884566 
L 76.815539 37.838264 
L 77.156985 37.943168 
L 77.498432 37.891258 
L 77.839879 37.844415 
L 78.181326 37.85431 
L 78.522772 37.896346 
L 78.864219 37.87546 
L 79.205666 37.931726 
L 79.547112 37.902234 
L 79.888559 37.701754 
L 80.230006 36.814671 
L 80.571452 36.921223 
L 80.912899 37.674713 
L 81.254346 37.863883 
L 81.595792 37.804276 
L 81.937239 37.838529 
L 82.278686 37.902504 
L 82.620132 37.776895 
L 82.961579 37.580227 
L 83.303026 37.801056 
L 83.644472 37.82372 
L 83.985919 37.861552 
L 84.327366 37.957374 
L 84.668812 37.955923 
L 85.010259 37.852441 
L 85.351706 37.72156 
L 85.693153 37.763068 
L 86.034599 37.896355 
L 86.376046 37.901703 
L 86.717493 37.903266 
L 87.058939 37.881895 
L 87.400386 37.944254 
L 87.741833 37.933543 
L 88.083279 37.917623 
L 88.424726 37.943457 
L 88.766173 37.921773 
L 89.107619 37.900064 
L 89.449066 37.93194 
L 89.790513 37.957365 
L 90.131959 37.935973 
L 90.473406 37.931403 
L 90.814853 37.953359 
L 91.156299 37.869209 
L 91.497746 37.860745 
L 91.839193 37.860481 
L 92.180639 37.886437 
L 92.522086 37.980139 
L 92.863533 37.982534 
L 93.20498 37.982534 
L 93.546426 37.982534 
L 93.887873 37.208968 
L 94.22932 37.135626 
L 94.570766 37.499963 
L 94.912213 36.137484 
L 95.25366 37.46512 
L 95.595106 37.970293 
L 95.936553 37.966469 
L 96.278 37.982534 
L 96.619446 37.962314 
L 96.960893 37.846557 
L 97.30234 37.67686 
L 97.643786 37.630815 
L 97.985233 37.798713 
L 98.32668 37.896873 
L 98.668126 37.939174 
L 99.009573 37.93278 
L 99.35102 37.935684 
L 99.692466 37.97584 
L 100.033913 37.972424 
L 100.37536 37.846293 
L 100.716806 37.792229 
L 101.058253 37.750825 
L 101.3997 37.613689 
L 101.741147 37.748864 
L 102.082593 37.897405 
L 102.42404 37.902234 
L 102.765487 37.888579 
L 103.106933 37.85486 
L 103.44838 37.889435 
L 103.789827 37.833987 
L 104.131273 37.80775 
L 104.47272 37.829305 
L 104.814167 37.831843 
L 105.155613 37.882158 
L 105.49706 37.956189 
L 105.838507 37.980927 
L 106.179953 37.89019 
L 106.5214 37.736724 
L 106.862847 37.779914 
L 107.204293 37.88618 
L 107.54574 37.573384 
L 107.887187 37.627065 
L 108.228633 37.944256 
L 108.57008 37.955758 
L 108.911527 37.941304 
L 109.252974 37.949335 
L 109.59442 37.976911 
L 109.935867 37.982534 
L 110.277314 37.982534 
L 110.61876 37.803465 
L 110.960207 37.520969 
L 111.301654 37.849772 
L 111.6431 37.982534 
L 111.984547 37.463779 
L 112.325994 37.272677 
L 112.66744 37.783119 
L 113.008887 37.688044 
L 113.350334 37.700411 
L 113.69178 37.64715 
L 114.033227 37.650896 
L 114.374674 37.955927 
L 114.71612 37.979053 
L 115.057567 37.959239 
L 115.399014 37.955923 
L 115.74046 37.966742 
L 116.081907 37.902505 
L 116.423354 37.811745 
L 116.764801 37.736274 
L 117.106247 37.896881 
L 117.447694 37.927199 
L 117.789141 37.931401 
L 118.130587 37.956829 
L 118.472034 37.965237 
L 118.813481 37.982534 
L 119.154927 37.955758 
L 119.496374 37.955758 
L 119.837821 37.962043 
L 120.179267 37.95442 
L 120.520714 37.977714 
L 120.862161 37.971889 
L 121.203607 37.954423 
L 121.545054 37.856196 
L 121.886501 37.607703 
L 122.227947 37.580227 
L 122.569394 37.875202 
L 122.910841 37.264522 
L 123.252287 35.625431 
L 123.593734 33.373793 
L 123.935181 35.577641 
L 124.276628 37.720219 
L 124.618074 37.755824 
L 124.959521 37.626535 
L 125.300968 37.771313 
L 125.642414 37.854321 
L 125.983861 37.933817 
L 126.325308 37.957253 
L 126.666754 37.955758 
L 127.008201 37.93328 
L 127.349648 37.951665 
L 127.691094 37.955758 
L 128.032541 37.955758 
L 128.373988 37.980139 
L 128.715434 37.928194 
L 129.056881 37.397408 
L 129.398328 36.134971 
L 129.739774 35.889892 
L 130.081221 36.351356 
L 130.422668 37.40089 
L 130.764114 37.429723 
L 131.105561 37.459508 
L 131.447008 37.780983 
L 131.788455 37.812014 
L 132.129901 37.580224 
L 132.471348 37.613684 
L 132.812795 37.671286 
L 133.154241 37.65625 
L 133.495688 37.749128 
L 133.837135 37.673682 
L 134.178581 37.844689 
L 134.520028 37.809612 
L 134.861475 37.600566 
L 135.202921 37.602384 
L 135.544368 37.84897 
L 135.885815 37.877616 
L 136.227261 37.866546 
L 136.568708 37.904109 
L 136.910155 37.805067 
L 137.251601 37.797118 
L 137.593048 37.943977 
L 137.934495 37.95201 
L 138.275941 37.925334 
L 138.617388 37.811762 
L 138.958835 37.859673 
L 139.300281 37.719965 
L 139.641728 37.627879 
L 139.983175 37.621181 
L 140.324622 37.868232 
L 140.666068 37.871334 
L 141.007515 37.655449 
L 141.348962 37.486009 
L 141.690408 37.176734 
L 142.031855 37.259021 
L 142.373302 36.824593 
L 142.714748 29.484539 
L 143.056195 28.415205 
L 143.397642 36.344662 
L 143.739088 37.657182 
L 144.080535 37.775897 
L 144.421982 37.917487 
L 144.763428 37.866282 
L 145.104875 37.702822 
L 145.446322 37.603246 
L 145.787768 37.894742 
L 146.129215 37.95034 
L 146.470662 37.779113 
L 146.812108 37.510895 
L 147.153555 37.589877 
L 147.495002 37.760104 
L 147.836449 37.880552 
L 148.177895 37.846062 
L 148.519342 37.772414 
L 148.860789 37.661598 
L 149.202235 37.223561 
L 149.543682 36.627592 
L 149.885129 36.885087 
L 150.226575 37.602913 
L 150.568022 37.723702 
L 150.909469 37.779646 
L 151.250915 37.885638 
L 151.592362 37.952997 
L 151.933809 37.88884 
L 152.275255 37.827829 
L 152.616702 37.897134 
L 152.958149 37.926593 
L 153.299595 37.896613 
L 153.641042 37.669155 
L 153.982489 36.960034 
L 154.323935 36.736531 
L 154.665382 35.149339 
L 155.006829 33.056337 
L 155.348276 36.83102 
L 155.689722 37.108363 
L 156.031169 37.249115 
L 156.372616 37.744308 
L 156.714062 37.422564 
L 157.055509 37.79658 
L 157.396956 37.907586 
L 157.738402 37.809618 
L 158.079849 37.901389 
L 158.421296 37.876537 
L 158.762742 37.85325 
L 159.104189 37.928264 
L 159.445636 37.806416 
L 159.787082 37.820594 
L 160.128529 37.809881 
L 160.469976 37.902234 
L 160.811422 37.94693 
L 161.152869 37.912573 
L 161.494316 37.910265 
L 161.835762 37.87761 
L 162.177209 37.924725 
L 162.518656 37.953528 
L 162.860103 37.562291 
L 163.201549 36.865279 
L 163.542996 37.130179 
L 163.884443 37.45495 
L 164.225889 37.294355 
L 164.567336 37.159976 
L 164.908783 36.198246 
L 165.250229 36.505263 
L 165.591676 29.34115 
L 165.933123 16.291898 
L 166.274569 25.694877 
L 166.616016 37.157316 
L 166.957463 34.660215 
L 167.298909 34.070805 
L 167.640356 35.119535 
L 167.981803 36.514326 
L 168.323249 36.086627 
L 168.664696 37.019188 
L 169.006143 37.698418 
L 169.347589 37.373311 
L 169.689036 37.613152 
L 170.030483 37.872663 
L 170.371929 37.65464 
L 170.713376 37.739756 
L 171.054823 37.876125 
L 171.39627 37.927394 
L 171.737716 37.982534 
L 172.079163 37.955923 
L 172.42061 37.89715 
L 172.762056 37.574335 
L 173.103503 36.56308 
L 173.44495 37.202006 
L 173.786396 37.827558 
L 174.127843 37.806677 
L 174.46929 37.874794 
L 174.810736 37.846558 
L 175.152183 37.813368 
L 175.49363 37.771044 
L 175.835076 37.740303 
L 176.176523 37.843345 
L 176.51797 37.919756 
L 176.859416 37.91053 
L 177.200863 37.840669 
L 177.54231 37.866103 
L 177.883756 37.874801 
L 178.225203 37.874405 
L 178.56665 37.886179 
L 178.908097 37.909642 
L 179.249543 37.746454 
L 179.59099 37.815508 
L 179.932437 37.840216 
L 180.273883 37.652227 
L 180.61533 37.687294 
L 180.956777 36.597592 
L 181.298223 31.342177 
L 181.63967 31.203257 
L 181.981117 36.553436 
L 182.322563 37.763853 
L 182.66401 37.839871 
L 183.005457 37.903037 
L 183.346903 37.860958 
L 183.68835 37.888578 
L 184.029797 37.844419 
L 184.371243 37.792326 
L 184.71269 37.82515 
L 185.054137 37.729312 
L 185.395583 37.751888 
L 185.73703 37.771873 
L 186.078477 37.942919 
L 186.419924 37.915756 
L 186.76137 37.89126 
L 187.102817 37.92901 
L 187.444264 37.866017 
L 187.78571 37.837994 
L 188.127157 37.976645 
L 188.468604 37.982534 
L 188.81005 37.982534 
L 189.151497 37.958445 
L 189.492944 37.875474 
L 189.83439 37.870803 
L 190.175837 37.702553 
L 190.517284 37.436484 
L 190.85873 37.44143 
L 191.200177 37.787409 
L 191.541624 37.918025 
L 191.88307 37.982534 
L 192.224517 37.982534 
L 192.565964 37.934088 
L 192.90741 37.898205 
L 193.248857 37.668823 
L 193.590304 37.564968 
L 193.931751 37.083698 
L 194.273197 37.507677 
L 194.614644 37.890188 
L 194.956091 37.832377 
L 195.297537 37.889151 
L 195.638984 37.94077 
L 195.980431 37.978785 
L 196.321877 37.929334 
L 196.663324 37.902234 
L 197.004771 37.96058 
L 197.346217 37.894219 
L 197.687664 37.832907 
L 198.029111 37.887513 
L 198.370557 37.719438 
L 198.712004 37.083431 
L 199.053451 36.420142 
L 199.394897 36.581817 
L 199.736344 36.946088 
L 200.077791 37.560953 
L 200.419237 37.736815 
L 200.760684 37.799782 
L 201.102131 37.805884 
L 201.443577 37.858602 
L 201.785024 37.83383 
L 202.126471 37.259021 
L 202.467918 37.261968 
L 202.809364 37.648942 
L 203.150811 37.367426 
L 203.492258 37.164801 
L 203.833704 35.754815 
L 204.175151 35.940747 
L 204.516598 37.232783 
L 204.858044 37.711387 
L 205.199491 37.825853 
L 205.540938 37.778311 
L 205.882384 37.745651 
L 206.223831 37.714655 
L 206.565278 37.794643 
L 206.906724 37.925248 
L 207.248171 37.930652 
L 207.589618 37.927398 
L 207.931064 37.890185 
L 208.272511 37.882249 
L 208.613958 37.606197 
L 208.955404 37.557203 
L 209.296851 37.982534 
L 209.638298 37.962725 
L 209.979745 37.878951 
L 210.321191 37.904374 
L 210.662638 37.838347 
L 211.004085 37.758501 
L 211.345531 37.73575 
L 211.686978 37.827179 
L 212.028425 37.780717 
L 212.369871 37.513844 
L 212.711318 37.228345 
L 213.052765 37.565506 
L 213.394211 37.759572 
L 213.735658 37.717308 
L 214.077105 37.525893 
L 214.418551 37.319512 
L 214.759998 37.664369 
z
" clip-path="url(#p4a0fa436c5)" style="fill: #2980b9"/>
   </g>
   <g id="text_1">
    <text style="font-size: 6.4px; font-family: 'DejaVu Sans', 'Bitstream Vera Sans', 'Computer Modern Sans Serif', 'Lucida Grande', 'Verdana', 'Geneva', 'Lucid', 'Arial', 'Helvetica', 'Avant Garde', sans-serif; text-anchor: start" x="44.378104" y="116.810602" transform="rotate(-0 44.378104 116.810602)">35.6Mb</text>
   </g>
   <g id="text_2">
    <text style="font-size: 6.4px; font-family: 'DejaVu Sans', 'Bitstream Vera Sans', 'Computer Modern Sans Serif', 'Lucida Grande', 'Verdana', 'Geneva', 'Lucid', 'Arial', 'Helvetica', 'Avant Garde', sans-serif; text-anchor: end" x="215.101445" y="116.810602" transform="rotate(-0 215.101445 116.810602)">35.6Mb</text>
   </g>
   <g id="text_3">
    <text style="font-size: 8px; font-family: 'DejaVu Sans', 'Bitstream Vera Sans', 'Computer Modern Sans Serif', 'Lucida Grande', 'Verdana', 'Geneva', 'Lucid', 'Arial', 'Helvetica', 'Avant Garde', sans-serif; text-anchor: middle" x="129.739774" y="123.394784" transform="rotate(-0 129.739774 123.394784)">chr9</text>
   </g>
   <g id="text_4">
    <text style="font-size: 6px; font-family: 'DejaVu Sans', 'Bitstream Vera Sans', 'Computer Modern Sans Serif', 'Lucida Grande', 'Verdana', 'Geneva', 'Lucid', 'Arial', 'Helvetica', 'Avant Garde', sans-serif; text-anchor: middle" x="60.45836" y="86.832932" transform="rotate(-0 60.45836 86.832932)">TESK1</text>
   </g>
   <g id="text_5">
    <text style="font-size: 6px; font-family: 'DejaVu Sans', 'Bitstream Vera Sans', 'Computer Modern Sans Serif', 'Lucida Grande', 'Verdana', 'Geneva', 'Lucid', 'Arial', 'Helvetica', 'Avant Garde', sans-serif; text-anchor: middle" x="149.790658" y="86.832932" transform="rotate(-0 149.790658 86.832932)">SIT1</text>
   </g>
   <g id="text_6">
    <text style="font-size: 6px; font-family: 'DejaVu Sans', 'Bitstream Vera Sans', 'Computer Modern Sans Serif', 'Lucida Grande', 'Verdana', 'Geneva', 'Lucid', 'Arial', 'Helvetica', 'Avant Garde', sans-serif; text-anchor: middle" x="170.382178" y="86.832932" transform="rotate(-0 170.382178 86.832932)">CCDC107</text>
   </g>
   <g id="text_7">
    <text style="font-size: 6px; font-family: 'DejaVu Sans', 'Bitstream Vera Sans', 'Computer Modern Sans Serif', 'Lucida Grande', 'Verdana', 'Geneva', 'Lucid', 'Arial', 'Helvetica', 'Avant Garde', sans-serif; text-anchor: middle" x="207.494668" y="86.832932" transform="rotate(-0 207.494668 86.832932)">CA9</text>
   </g>
   <g id="text_8">
    <text style="font-size: 6px; font-family: 'DejaVu Sans', 'Bitstream Vera Sans', 'Computer Modern Sans Serif', 'Lucida Grande', 'Verdana', 'Geneva', 'Lucid', 'Arial', 'Helvetica', 'Avant Garde', sans-serif; text-anchor: middle" x="74.237228" y="73.710098" transform="rotate(-0 74.237228 73.710098)">CD72</text>
   </g>
   <g id="text_9">
    <text style="font-size: 6px; font-family: 'DejaVu Sans', 'Bitstream Vera Sans', 'Computer Modern Sans Serif', 'Lucida Grande', 'Verdana', 'Geneva', 'Lucid', 'Arial', 'Helvetica', 'Avant Garde', sans-serif; text-anchor: middle" x="175.362556" y="73.710098" transform="rotate(-0 175.362556 73.710098)">ARHGEF39</text>
   </g>
   <g id="text_10">
    <text style="font-size: 6px; font-family: 'DejaVu Sans', 'Bitstream Vera Sans', 'Computer Modern Sans Serif', 'Lucida Grande', 'Verdana', 'Geneva', 'Lucid', 'Arial', 'Helvetica', 'Avant Garde', sans-serif; text-anchor: start" x="44.484806" y="46.168271" transform="rotate(-0 44.484806 46.168271)">[0-6.1]</text>
   </g>
   <g id="text_11">
    <text style="font-size: 7px; font-family: 'DejaVu Sans', 'Bitstream Vera Sans', 'Computer Modern Sans Serif', 'Lucida Grande', 'Verdana', 'Geneva', 'Lucid', 'Arial', 'Helvetica', 'Avant Garde', sans-serif; text-anchor: end" x="42.244062" y="55.422901" transform="rotate(-0 42.244062 55.422901)">G361 Rep2</text>
   </g>
   <g id="text_12">
    <text style="font-size: 6px; font-family: 'DejaVu Sans', 'Bitstream Vera Sans', 'Computer Modern Sans Serif', 'Lucida Grande', 'Verdana', 'Geneva', 'Lucid', 'Arial', 'Helvetica', 'Avant Garde', sans-serif; text-anchor: start" x="44.484806" y="18.729617" transform="rotate(-0 44.484806 18.729617)">[0-5.4]</text>
   </g>
   <g id="text_13">
    <text style="font-size: 7px; font-family: 'DejaVu Sans', 'Bitstream Vera Sans', 'Computer Modern Sans Serif', 'Lucida Grande', 'Verdana', 'Geneva', 'Lucid', 'Arial', 'Helvetica', 'Avant Garde', sans-serif; text-anchor: end" x="42.244062" y="27.984247" transform="rotate(-0 42.244062 27.984247)">G361 Rep1</text>
   </g>
  </g>
 </g>
 <defs>
  <clipPath id="p4a0fa436c5">
   <rect x="23.037686" y="1" width="202.733967" height="131.228346"/>
  </clipPath>
 </defs>
</svg>
