<?xml version="1.0" encoding="utf-8" standalone="no"?>
<!DOCTYPE svg PUBLIC "-//W3C//DTD SVG 1.1//EN"
  "http://www.w3.org/Graphics/SVG/1.1/DTD/svg11.dtd">
<svg xmlns:xlink="http://www.w3.org/1999/xlink" width="226.771654pt" height="198.425197pt" viewBox="0 0 226.771654 198.425197" xmlns="http://www.w3.org/2000/svg" version="1.1">
 <metadata>
  <rdf:RDF xmlns:dc="http://purl.org/dc/elements/1.1/" xmlns:cc="http://creativecommons.org/ns#" xmlns:rdf="http://www.w3.org/1999/02/22-rdf-syntax-ns#">
   <cc:Work>
    <dc:type rdf:resource="http://purl.org/dc/dcmitype/StillImage"/>
    <dc:date>2025-04-17T12:14:38.005414</dc:date>
    <dc:format>image/svg+xml</dc:format>
    <dc:creator>
     <cc:Agent>
      <dc:title>Matplotlib v3.10.1, https://matplotlib.org/</dc:title>
     </cc:Agent>
    </dc:creator>
   </cc:Work>
  </rdf:RDF>
 </metadata>
 <defs>
  <style type="text/css">*{stroke-linejoin: round; stroke-linecap: butt}</style>
 </defs>
 <g id="figure_1">
  <g id="patch_1">
   <path d="M 0 198.425197 
L 226.771654 198.425197 
L 226.771654 0 
L 0 0 
z
" style="fill: #ffffff"/>
  </g>
  <g id="axes_1">
   <g id="patch_2">
    <path d="M 59.545794 174.760751 
C 60.201804 174.760751 60.831033 174.097399 61.294902 172.916789 
C 61.75877 171.73618 62.019406 170.134705 62.019406 168.465072 
C 62.019406 166.795438 61.75877 165.193963 61.294902 164.013354 
C 60.831033 162.832745 60.201804 162.169392 59.545794 162.169392 
C 58.889785 162.169392 58.260556 162.832745 57.796687 164.013354 
C 57.332818 165.193963 57.072183 166.795438 57.072183 168.465072 
C 57.072183 170.134705 57.332818 171.73618 57.796687 172.916789 
C 58.260556 174.097399 58.889785 174.760751 59.545794 174.760751 
z
" clip-path="url(#p833873ebd4)" style="fill: #ffffff; stroke: #000000; stroke-width: 0.2; stroke-linejoin: miter"/>
   </g>
   <g id="patch_3">
    <path d="M 110.254826 174.760751 
C 110.761742 174.760751 111.247965 174.097399 111.606409 172.916789 
C 111.964853 171.73618 112.166253 170.134705 112.166253 168.465072 
C 112.166253 166.795438 111.964853 165.193963 111.606409 164.013354 
C 111.247965 162.832745 110.761742 162.169392 110.254826 162.169392 
C 109.74791 162.169392 109.261687 162.832745 108.903243 164.013354 
C 108.544799 165.193963 108.343399 166.795438 108.343399 168.465072 
C 108.343399 170.134705 108.544799 171.73618 108.903243 172.916789 
C 109.261687 174.097399 109.74791 174.760751 110.254826 174.760751 
z
" clip-path="url(#p833873ebd4)" style="fill: #333333; stroke: #000000; stroke-width: 0.2; stroke-linejoin: miter"/>
   </g>
   <g id="patch_4">
    <path d="M 114.07768 174.760751 
C 114.584596 174.760751 115.070819 174.097399 115.429263 172.916789 
C 115.787707 171.73618 115.989107 170.134705 115.989107 168.465072 
C 115.989107 166.795438 115.787707 165.193963 115.429263 164.013354 
C 115.070819 162.832745 114.584596 162.169392 114.07768 162.169392 
C 113.570764 162.169392 113.084541 162.832745 112.726097 164.013354 
C 112.367653 165.193963 112.166253 166.795438 112.166253 168.465072 
C 112.166253 170.134705 112.367653 171.73618 112.726097 172.916789 
C 113.084541 174.097399 113.570764 174.760751 114.07768 174.760751 
z
" clip-path="url(#p833873ebd4)" style="fill: #333333; stroke: #000000; stroke-width: 0.2; stroke-linejoin: miter"/>
   </g>
   <g id="patch_5">
    <path d="M 211.560453 174.760751 
C 212.697565 174.760751 213.788257 174.097399 214.592316 172.916789 
C 215.396376 171.73618 215.848155 170.134705 215.848155 168.465072 
C 215.848155 166.795438 215.396376 165.193963 214.592316 164.013354 
C 213.788257 162.832745 212.697565 162.169392 211.560453 162.169392 
C 210.42334 162.169392 209.332649 162.832745 208.528589 164.013354 
C 207.724529 165.193963 207.27275 166.795438 207.27275 168.465072 
C 207.27275 170.134705 207.724529 171.73618 208.528589 172.916789 
C 209.332649 174.097399 210.42334 174.760751 211.560453 174.760751 
z
" clip-path="url(#p833873ebd4)" style="fill: #ffffff; stroke: #000000; stroke-width: 0.2; stroke-linejoin: miter"/>
   </g>
   <g id="patch_6">
    <path d="M 59.545794 174.760751 
L 59.545794 162.169392 
L 62.244279 162.169392 
L 62.244279 174.760751 
z
" clip-path="url(#p833873ebd4)" style="fill: #cccccc; stroke: #000000; stroke-width: 0.2; stroke-linejoin: miter"/>
   </g>
   <g id="patch_7">
    <path d="M 62.244279 174.760751 
L 62.244279 162.169392 
L 67.191502 162.169392 
L 67.191502 174.760751 
z
" clip-path="url(#p833873ebd4)" style="fill: #ffffff; stroke: #000000; stroke-width: 0.2; stroke-linejoin: miter"/>
   </g>
   <g id="patch_8">
    <path d="M 67.191502 174.760751 
L 67.191502 162.169392 
L 73.03822 162.169392 
L 73.03822 174.760751 
z
" clip-path="url(#p833873ebd4)" style="fill: #666666; stroke: #000000; stroke-width: 0.2; stroke-linejoin: miter"/>
   </g>
   <g id="patch_9">
    <path d="M 73.03822 174.760751 
L 73.03822 162.169392 
L 75.736705 162.169392 
L 75.736705 174.760751 
z
" clip-path="url(#p833873ebd4)" style="fill: #ffffff; stroke: #000000; stroke-width: 0.2; stroke-linejoin: miter"/>
   </g>
   <g id="patch_10">
    <path d="M 75.736705 174.760751 
L 75.736705 162.169392 
L 77.873005 162.169392 
L 77.873005 174.760751 
z
" clip-path="url(#p833873ebd4)" style="fill: #cccccc; stroke: #000000; stroke-width: 0.2; stroke-linejoin: miter"/>
   </g>
   <g id="patch_11">
    <path d="M 77.873005 174.760751 
L 77.873005 162.169392 
L 79.447122 162.169392 
L 79.447122 174.760751 
z
" clip-path="url(#p833873ebd4)" style="fill: #ffffff; stroke: #000000; stroke-width: 0.2; stroke-linejoin: miter"/>
   </g>
   <g id="patch_12">
    <path d="M 79.447122 174.760751 
L 79.447122 162.169392 
L 85.856024 162.169392 
L 85.856024 174.760751 
z
" clip-path="url(#p833873ebd4)" style="fill: #333333; stroke: #000000; stroke-width: 0.2; stroke-linejoin: miter"/>
   </g>
   <g id="patch_13">
    <path d="M 85.856024 174.760751 
L 85.856024 162.169392 
L 88.554509 162.169392 
L 88.554509 174.760751 
z
" clip-path="url(#p833873ebd4)" style="fill: #ffffff; stroke: #000000; stroke-width: 0.2; stroke-linejoin: miter"/>
   </g>
   <g id="patch_14">
    <path d="M 88.554509 174.760751 
L 88.554509 162.169392 
L 94.401226 162.169392 
L 94.401226 174.760751 
z
" clip-path="url(#p833873ebd4)" style="fill: #333333; stroke: #000000; stroke-width: 0.2; stroke-linejoin: miter"/>
   </g>
   <g id="patch_15">
    <path d="M 94.401226 174.760751 
L 94.401226 162.169392 
L 97.88677 162.169392 
L 97.88677 174.760751 
z
" clip-path="url(#p833873ebd4)" style="fill: #ffffff; stroke: #000000; stroke-width: 0.2; stroke-linejoin: miter"/>
   </g>
   <g id="patch_16">
    <path d="M 97.88677 174.760751 
L 97.88677 162.169392 
L 100.247944 162.169392 
L 100.247944 174.760751 
z
" clip-path="url(#p833873ebd4)" style="fill: #cccccc; stroke: #000000; stroke-width: 0.2; stroke-linejoin: miter"/>
   </g>
   <g id="patch_17">
    <path d="M 100.247944 174.760751 
L 100.247944 162.169392 
L 103.171303 162.169392 
L 103.171303 174.760751 
z
" clip-path="url(#p833873ebd4)" style="fill: #ffffff; stroke: #000000; stroke-width: 0.2; stroke-linejoin: miter"/>
   </g>
   <g id="patch_18">
    <path d="M 103.171303 174.760751 
L 103.171303 162.169392 
L 106.094662 162.169392 
L 106.094662 174.760751 
z
" clip-path="url(#p833873ebd4)" style="fill: #999999; stroke: #000000; stroke-width: 0.2; stroke-linejoin: miter"/>
   </g>
   <g id="patch_19">
    <path d="M 106.094662 174.760751 
L 106.094662 162.169392 
L 110.254826 162.169392 
L 110.254826 174.760751 
z
" clip-path="url(#p833873ebd4)" style="fill: #ffffff; stroke: #000000; stroke-width: 0.2; stroke-linejoin: miter"/>
   </g>
   <g id="patch_20">
    <path d="M 114.07768 174.760751 
L 114.07768 162.169392 
L 131.168085 162.169392 
L 131.168085 174.760751 
z
" clip-path="url(#p833873ebd4)" style="fill: #333333; stroke: #000000; stroke-width: 0.2; stroke-linejoin: miter"/>
   </g>
   <g id="patch_21">
    <path d="M 131.168085 174.760751 
L 131.168085 162.169392 
L 134.316318 162.169392 
L 134.316318 174.760751 
z
" clip-path="url(#p833873ebd4)" style="fill: #ffffff; stroke: #000000; stroke-width: 0.2; stroke-linejoin: miter"/>
   </g>
   <g id="patch_22">
    <path d="M 134.316318 174.760751 
L 134.316318 162.169392 
L 138.251608 162.169392 
L 138.251608 174.760751 
z
" clip-path="url(#p833873ebd4)" style="fill: #cccccc; stroke: #000000; stroke-width: 0.2; stroke-linejoin: miter"/>
   </g>
   <g id="patch_23">
    <path d="M 138.251608 174.760751 
L 138.251608 162.169392 
L 140.275472 162.169392 
L 140.275472 174.760751 
z
" clip-path="url(#p833873ebd4)" style="fill: #ffffff; stroke: #000000; stroke-width: 0.2; stroke-linejoin: miter"/>
   </g>
   <g id="patch_24">
    <path d="M 140.275472 174.760751 
L 140.275472 162.169392 
L 146.12219 162.169392 
L 146.12219 174.760751 
z
" clip-path="url(#p833873ebd4)" style="fill: #999999; stroke: #000000; stroke-width: 0.2; stroke-linejoin: miter"/>
   </g>
   <g id="patch_25">
    <path d="M 146.12219 174.760751 
L 146.12219 162.169392 
L 148.258491 162.169392 
L 148.258491 174.760751 
z
" clip-path="url(#p833873ebd4)" style="fill: #ffffff; stroke: #000000; stroke-width: 0.2; stroke-linejoin: miter"/>
   </g>
   <g id="patch_26">
    <path d="M 148.258491 174.760751 
L 148.258491 162.169392 
L 151.631597 162.169392 
L 151.631597 174.760751 
z
" clip-path="url(#p833873ebd4)" style="fill: #999999; stroke: #000000; stroke-width: 0.2; stroke-linejoin: miter"/>
   </g>
   <g id="patch_27">
    <path d="M 151.631597 174.760751 
L 151.631597 162.169392 
L 154.779829 162.169392 
L 154.779829 174.760751 
z
" clip-path="url(#p833873ebd4)" style="fill: #ffffff; stroke: #000000; stroke-width: 0.2; stroke-linejoin: miter"/>
   </g>
   <g id="patch_28">
    <path d="M 154.779829 174.760751 
L 154.779829 162.169392 
L 158.71512 162.169392 
L 158.71512 174.760751 
z
" clip-path="url(#p833873ebd4)" style="fill: #999999; stroke: #000000; stroke-width: 0.2; stroke-linejoin: miter"/>
   </g>
   <g id="patch_29">
    <path d="M 158.71512 174.760751 
L 158.71512 162.169392 
L 160.289236 162.169392 
L 160.289236 174.760751 
z
" clip-path="url(#p833873ebd4)" style="fill: #ffffff; stroke: #000000; stroke-width: 0.2; stroke-linejoin: miter"/>
   </g>
   <g id="patch_30">
    <path d="M 160.289236 174.760751 
L 160.289236 162.169392 
L 162.650411 162.169392 
L 162.650411 174.760751 
z
" clip-path="url(#p833873ebd4)" style="fill: #cccccc; stroke: #000000; stroke-width: 0.2; stroke-linejoin: miter"/>
   </g>
   <g id="patch_31">
    <path d="M 162.650411 174.760751 
L 162.650411 162.169392 
L 165.686207 162.169392 
L 165.686207 174.760751 
z
" clip-path="url(#p833873ebd4)" style="fill: #ffffff; stroke: #000000; stroke-width: 0.2; stroke-linejoin: miter"/>
   </g>
   <g id="patch_32">
    <path d="M 165.686207 174.760751 
L 165.686207 162.169392 
L 168.722002 162.169392 
L 168.722002 174.760751 
z
" clip-path="url(#p833873ebd4)" style="fill: #cccccc; stroke: #000000; stroke-width: 0.2; stroke-linejoin: miter"/>
   </g>
   <g id="patch_33">
    <path d="M 168.722002 174.760751 
L 168.722002 162.169392 
L 172.432419 162.169392 
L 172.432419 174.760751 
z
" clip-path="url(#p833873ebd4)" style="fill: #ffffff; stroke: #000000; stroke-width: 0.2; stroke-linejoin: miter"/>
   </g>
   <g id="patch_34">
    <path d="M 172.432419 174.760751 
L 172.432419 162.169392 
L 178.728884 162.169392 
L 178.728884 174.760751 
z
" clip-path="url(#p833873ebd4)" style="fill: #333333; stroke: #000000; stroke-width: 0.2; stroke-linejoin: miter"/>
   </g>
   <g id="patch_35">
    <path d="M 178.728884 174.760751 
L 178.728884 162.169392 
L 182.214428 162.169392 
L 182.214428 174.760751 
z
" clip-path="url(#p833873ebd4)" style="fill: #ffffff; stroke: #000000; stroke-width: 0.2; stroke-linejoin: miter"/>
   </g>
   <g id="patch_36">
    <path d="M 182.214428 174.760751 
L 182.214428 162.169392 
L 186.262155 162.169392 
L 186.262155 174.760751 
z
" clip-path="url(#p833873ebd4)" style="fill: #cccccc; stroke: #000000; stroke-width: 0.2; stroke-linejoin: miter"/>
   </g>
   <g id="patch_37">
    <path d="M 186.262155 174.760751 
L 186.262155 162.169392 
L 189.410388 162.169392 
L 189.410388 174.760751 
z
" clip-path="url(#p833873ebd4)" style="fill: #ffffff; stroke: #000000; stroke-width: 0.2; stroke-linejoin: miter"/>
   </g>
   <g id="patch_38">
    <path d="M 189.410388 174.760751 
L 189.410388 162.169392 
L 194.807358 162.169392 
L 194.807358 174.760751 
z
" clip-path="url(#p833873ebd4)" style="fill: #666666; stroke: #000000; stroke-width: 0.2; stroke-linejoin: miter"/>
   </g>
   <g id="patch_39">
    <path d="M 194.807358 174.760751 
L 194.807358 162.169392 
L 198.517775 162.169392 
L 198.517775 174.760751 
z
" clip-path="url(#p833873ebd4)" style="fill: #ffffff; stroke: #000000; stroke-width: 0.2; stroke-linejoin: miter"/>
   </g>
   <g id="patch_40">
    <path d="M 198.517775 174.760751 
L 198.517775 162.169392 
L 203.577434 162.169392 
L 203.577434 174.760751 
z
" clip-path="url(#p833873ebd4)" style="fill: #cccccc; stroke: #000000; stroke-width: 0.2; stroke-linejoin: miter"/>
   </g>
   <g id="patch_41">
    <path d="M 203.577434 174.760751 
L 203.577434 162.169392 
L 207.175414 162.169392 
L 207.175414 174.760751 
z
" clip-path="url(#p833873ebd4)" style="fill: #ffffff; stroke: #000000; stroke-width: 0.2; stroke-linejoin: miter"/>
   </g>
   <g id="patch_42">
    <path d="M 207.175414 174.760751 
L 207.175414 162.169392 
L 207.737599 162.169392 
L 207.737599 174.760751 
z
" clip-path="url(#p833873ebd4)" style="fill: #cccccc; stroke: #000000; stroke-width: 0.2; stroke-linejoin: miter"/>
   </g>
   <g id="patch_43">
    <path d="M 207.737599 174.760751 
L 207.737599 162.169392 
L 209.873899 162.169392 
L 209.873899 174.760751 
z
" clip-path="url(#p833873ebd4)" style="fill: #ffffff; stroke: #000000; stroke-width: 0.2; stroke-linejoin: miter"/>
   </g>
   <g id="patch_44">
    <path d="M 209.873899 174.760751 
L 209.873899 162.169392 
L 211.560453 162.169392 
L 211.560453 174.760751 
z
" clip-path="url(#p833873ebd4)" style="fill: #cccccc; stroke: #000000; stroke-width: 0.2; stroke-linejoin: miter"/>
   </g>
   <g id="patch_45">
    <path d="M 64.459688 150.386399 
L 64.459688 150.109389 
L 57.072183 150.109389 
L 57.072183 150.386399 
z
" clip-path="url(#p833873ebd4)" style="fill: #808080; stroke: #808080; stroke-linejoin: miter"/>
   </g>
   <g id="patch_46">
    <path d="M 54.555759 150.247894 
L 57.532809 144.430686 
L 58.226663 144.430686 
L 58.226663 156.065102 
L 57.532809 156.065102 
z
" clip-path="url(#p833873ebd4)" style="fill: #2980b9; stroke: #2980b9; stroke-linejoin: miter"/>
   </g>
   <g id="patch_47">
    <path d="M 59.655186 156.065102 
L 59.655186 144.430686 
L 60.360702 144.430686 
L 60.360702 156.065102 
z
" clip-path="url(#p833873ebd4)" style="fill: #2980b9; stroke: #2980b9; stroke-linejoin: miter"/>
   </g>
   <g id="patch_48">
    <path d="M 61.894177 156.065102 
L 61.894177 144.430686 
L 62.448095 144.430686 
L 62.448095 156.065102 
z
" clip-path="url(#p833873ebd4)" style="fill: #2980b9; stroke: #2980b9; stroke-linejoin: miter"/>
   </g>
   <g id="patch_49">
    <path d="M 63.503452 156.065102 
L 63.503452 144.430686 
L 64.459688 144.430686 
L 64.459688 156.065102 
z
" clip-path="url(#p833873ebd4)" style="fill: #2980b9; stroke: #2980b9; stroke-linejoin: miter"/>
   </g>
   <g id="patch_50">
    <path d="M 115.373419 150.386399 
L 115.373419 150.109389 
L 157.541089 150.109389 
L 157.541089 150.386399 
z
" clip-path="url(#p833873ebd4)" style="fill: #808080; stroke: #808080; stroke-linejoin: miter"/>
   </g>
   <g id="patch_51">
    <path d="M 115.373419 156.065102 
L 115.373419 144.430686 
L 117.909776 144.430686 
L 117.909776 156.065102 
z
" clip-path="url(#p833873ebd4)" style="fill: #2980b9; stroke: #2980b9; stroke-linejoin: miter"/>
   </g>
   <g id="patch_52">
    <path d="M 124.760856 156.065102 
L 124.760856 144.430686 
L 124.935777 144.430686 
L 124.935777 156.065102 
z
" clip-path="url(#p833873ebd4)" style="fill: #2980b9; stroke: #2980b9; stroke-linejoin: miter"/>
   </g>
   <g id="patch_53">
    <path d="M 126.061104 156.065102 
L 126.061104 144.430686 
L 127.058155 144.430686 
L 127.058155 156.065102 
z
" clip-path="url(#p833873ebd4)" style="fill: #2980b9; stroke: #2980b9; stroke-linejoin: miter"/>
   </g>
   <g id="patch_54">
    <path d="M 127.827808 156.065102 
L 127.827808 144.430686 
L 128.661599 144.430686 
L 128.661599 156.065102 
z
" clip-path="url(#p833873ebd4)" style="fill: #2980b9; stroke: #2980b9; stroke-linejoin: miter"/>
   </g>
   <g id="patch_55">
    <path d="M 129.186363 156.065102 
L 129.186363 144.430686 
L 129.728618 144.430686 
L 129.728618 156.065102 
z
" clip-path="url(#p833873ebd4)" style="fill: #2980b9; stroke: #2980b9; stroke-linejoin: miter"/>
   </g>
   <g id="patch_56">
    <path d="M 137.891608 156.065102 
L 137.891608 144.430686 
L 138.282265 144.430686 
L 138.282265 156.065102 
z
" clip-path="url(#p833873ebd4)" style="fill: #2980b9; stroke: #2980b9; stroke-linejoin: miter"/>
   </g>
   <g id="patch_57">
    <path d="M 146.025443 156.065102 
L 146.025443 144.430686 
L 146.946695 144.430686 
L 146.946695 156.065102 
z
" clip-path="url(#p833873ebd4)" style="fill: #2980b9; stroke: #2980b9; stroke-linejoin: miter"/>
   </g>
   <g id="patch_58">
    <path d="M 149.926186 156.065102 
L 149.926186 144.430686 
L 150.771639 144.430686 
L 150.771639 156.065102 
z
" clip-path="url(#p833873ebd4)" style="fill: #2980b9; stroke: #2980b9; stroke-linejoin: miter"/>
   </g>
   <g id="patch_59">
    <path d="M 151.436339 156.065102 
L 151.436339 144.430686 
L 151.593768 144.430686 
L 151.593768 156.065102 
z
" clip-path="url(#p833873ebd4)" style="fill: #2980b9; stroke: #2980b9; stroke-linejoin: miter"/>
   </g>
   <g id="patch_60">
    <path d="M 155.167991 156.065102 
L 155.167991 144.430686 
L 155.646109 144.430686 
L 155.646109 156.065102 
z
" clip-path="url(#p833873ebd4)" style="fill: #2980b9; stroke: #2980b9; stroke-linejoin: miter"/>
   </g>
   <g id="patch_61">
    <path d="M 156.404101 144.430686 
L 157.541089 144.430686 
L 160.518138 150.247894 
L 157.541089 156.065102 
L 156.404101 156.065102 
z
" clip-path="url(#p833873ebd4)" style="fill: #2980b9; stroke: #2980b9; stroke-linejoin: miter"/>
   </g>
   <g id="patch_62">
    <path d="M 209.416886 150.386399 
L 209.416886 150.109389 
L 162.398068 150.109389 
L 162.398068 150.386399 
z
" clip-path="url(#p833873ebd4)" style="fill: #808080; stroke: #808080; stroke-linejoin: miter"/>
   </g>
   <g id="patch_63">
    <path d="M 159.421018 150.247894 
L 162.398068 144.430686 
L 163.395118 144.430686 
L 163.395118 156.065102 
L 162.398068 156.065102 
z
" clip-path="url(#p833873ebd4)" style="fill: #2980b9; stroke: #2980b9; stroke-linejoin: miter"/>
   </g>
   <g id="patch_64">
    <path d="M 167.873101 156.065102 
L 167.873101 144.430686 
L 169.68062 144.430686 
L 169.68062 156.065102 
z
" clip-path="url(#p833873ebd4)" style="fill: #2980b9; stroke: #2980b9; stroke-linejoin: miter"/>
   </g>
   <g id="patch_65">
    <path d="M 175.53465 156.065102 
L 175.53465 144.430686 
L 175.942799 144.430686 
L 175.942799 156.065102 
z
" clip-path="url(#p833873ebd4)" style="fill: #2980b9; stroke: #2980b9; stroke-linejoin: miter"/>
   </g>
   <g id="patch_66">
    <path d="M 176.945681 156.065102 
L 176.945681 144.430686 
L 177.313015 144.430686 
L 177.313015 156.065102 
z
" clip-path="url(#p833873ebd4)" style="fill: #2980b9; stroke: #2980b9; stroke-linejoin: miter"/>
   </g>
   <g id="patch_67">
    <path d="M 178.368373 156.065102 
L 178.368373 144.430686 
L 178.811507 144.430686 
L 178.811507 156.065102 
z
" clip-path="url(#p833873ebd4)" style="fill: #2980b9; stroke: #2980b9; stroke-linejoin: miter"/>
   </g>
   <g id="patch_68">
    <path d="M 180.304168 156.065102 
L 180.304168 144.430686 
L 180.747301 144.430686 
L 180.747301 156.065102 
z
" clip-path="url(#p833873ebd4)" style="fill: #2980b9; stroke: #2980b9; stroke-linejoin: miter"/>
   </g>
   <g id="patch_69">
    <path d="M 181.499463 156.065102 
L 181.499463 144.430686 
L 181.913443 144.430686 
L 181.913443 156.065102 
z
" clip-path="url(#p833873ebd4)" style="fill: #2980b9; stroke: #2980b9; stroke-linejoin: miter"/>
   </g>
   <g id="patch_70">
    <path d="M 182.461529 156.065102 
L 182.461529 144.430686 
L 183.149552 144.430686 
L 183.149552 156.065102 
z
" clip-path="url(#p833873ebd4)" style="fill: #2980b9; stroke: #2980b9; stroke-linejoin: miter"/>
   </g>
   <g id="patch_71">
    <path d="M 183.70347 156.065102 
L 183.70347 144.430686 
L 184.484784 144.430686 
L 184.484784 156.065102 
z
" clip-path="url(#p833873ebd4)" style="fill: #2980b9; stroke: #2980b9; stroke-linejoin: miter"/>
   </g>
   <g id="patch_72">
    <path d="M 204.105112 156.065102 
L 204.105112 144.430686 
L 204.839781 144.430686 
L 204.839781 156.065102 
z
" clip-path="url(#p833873ebd4)" style="fill: #2980b9; stroke: #2980b9; stroke-linejoin: miter"/>
   </g>
   <g id="patch_73">
    <path d="M 207.358646 156.065102 
L 207.358646 144.430686 
L 209.416886 144.430686 
L 209.416886 156.065102 
z
" clip-path="url(#p833873ebd4)" style="fill: #2980b9; stroke: #2980b9; stroke-linejoin: miter"/>
   </g>
   <g id="patch_74">
    <path d="M 215.848155 126.913588 
L 57.072183 126.913588 
L 57.072183 126.77809 
L 57.389735 126.504941 
L 57.707287 126.453116 
L 58.024839 126.570584 
L 58.342391 126.508204 
L 58.659943 126.302727 
L 58.977495 126.121531 
L 59.295047 126.440356 
L 59.612599 126.57683 
L 59.930151 126.318607 
L 60.247702 126.020701 
L 60.565254 126.17885 
L 60.882806 126.368916 
L 61.200358 126.172511 
L 61.51791 126.142858 
L 61.835462 126.396997 
L 62.153014 126.468941 
L 62.470566 126.312787 
L 62.788118 124.624674 
L 63.10567 122.94703 
L 63.423222 123.392345 
L 63.740774 118.963851 
L 64.058326 104.020208 
L 64.375878 105.850103 
L 64.69343 112.90272 
L 65.010982 104.551833 
L 65.328534 110.471943 
L 65.646086 121.241062 
L 65.963637 123.469886 
L 66.281189 124.270014 
L 66.598741 126.079955 
L 66.916293 126.400128 
L 67.233845 125.989525 
L 67.551397 126.465765 
L 67.868949 126.75457 
L 68.186501 126.467875 
L 68.504053 126.670376 
L 68.821605 126.897716 
L 69.139157 126.856451 
L 69.456709 126.785512 
L 69.774261 126.629874 
L 70.091813 126.55707 
L 70.409365 126.3959 
L 70.726917 126.227559 
L 71.044469 126.393779 
L 71.362021 126.350208 
L 71.679572 126.368369 
L 71.997124 126.603839 
L 72.314676 126.547296 
L 72.632228 126.410508 
L 72.94978 126.586456 
L 73.267332 126.720262 
L 73.584884 126.628801 
L 73.902436 126.664806 
L 74.219988 126.764972 
L 74.53754 126.434006 
L 74.855092 126.036306 
L 75.172644 126.486948 
L 75.490196 126.577844 
L 75.807748 126.349314 
L 76.1253 126.144401 
L 76.442852 126.374709 
L 76.760404 126.661013 
L 77.077956 126.724097 
L 77.395507 126.584088 
L 77.713059 126.428701 
L 78.030611 126.52082 
L 78.348163 126.676606 
L 78.665715 126.574817 
L 78.983267 126.377244 
L 79.300819 126.606578 
L 79.618371 126.859566 
L 79.935923 126.79503 
L 80.253475 126.799246 
L 80.571027 126.879724 
L 80.888579 126.872026 
L 81.206131 126.720905 
L 81.523683 126.651652 
L 81.841235 126.563166 
L 82.158787 126.525054 
L 82.476339 126.666219 
L 82.793891 126.755855 
L 83.111442 126.830449 
L 83.428994 126.799246 
L 83.746546 126.858498 
L 84.064098 126.893476 
L 84.38165 126.799246 
L 84.699202 126.831017 
L 85.016754 126.856451 
L 85.334306 126.82573 
L 85.651858 126.856451 
L 85.96941 126.882903 
L 86.286962 126.823611 
L 86.604514 126.770152 
L 86.922066 126.69232 
L 87.239618 126.730662 
L 87.55717 126.741033 
L 87.874722 126.596569 
L 88.192274 126.461534 
L 88.509826 125.956252 
L 88.827377 125.996761 
L 89.144929 125.822163 
L 89.462481 125.010032 
L 89.780033 125.793056 
L 90.097585 125.556336 
L 90.415137 124.958159 
L 90.732689 124.65588 
L 91.050241 124.906279 
L 91.367793 126.173499 
L 91.685345 126.143917 
L 92.002897 125.645459 
L 92.320449 126.214849 
L 92.638001 126.703633 
L 92.955553 126.546229 
L 93.273105 126.733781 
L 93.590657 126.746324 
L 93.908209 126.590336 
L 94.225761 126.697626 
L 94.543312 126.636214 
L 94.860864 126.420907 
L 95.178416 126.59493 
L 95.495968 126.498859 
L 95.81352 126.598104 
L 96.131072 126.819008 
L 96.448624 126.753738 
L 96.766176 126.623584 
L 97.083728 126.56212 
L 97.40128 126.253548 
L 97.718832 126.090966 
L 98.036384 126.495733 
L 98.353936 125.692907 
L 98.671488 125.789241 
L 98.98904 126.532117 
L 99.306592 125.852768 
L 99.624144 125.449001 
L 99.941696 126.197909 
L 100.259247 126.661013 
L 100.576799 126.676445 
L 100.894351 126.729622 
L 101.211903 126.651052 
L 101.529455 126.500946 
L 101.847007 126.567403 
L 102.164559 126.655825 
L 102.482111 126.658446 
L 102.799663 126.665854 
L 103.117215 126.603856 
L 103.434767 126.655286 
L 103.752319 126.780551 
L 104.069871 126.720923 
L 104.387423 126.668291 
L 104.704975 126.565286 
L 105.022527 126.576813 
L 105.340079 126.413892 
L 105.657631 126.29305 
L 105.975182 126.589636 
L 106.292734 126.615279 
L 106.610286 126.410717 
L 106.927838 126.623517 
L 107.24539 126.776392 
L 107.562942 126.728317 
L 107.880494 126.693239 
L 108.198046 126.713517 
L 108.515598 126.668292 
L 108.83315 126.412832 
L 109.150702 125.999908 
L 109.468254 126.34084 
L 109.785806 126.864757 
L 110.103358 126.21908 
L 110.42091 125.849181 
L 110.738462 126.495417 
L 111.056014 125.974972 
L 111.373566 125.089434 
L 111.691117 124.717831 
L 112.008669 124.515556 
L 112.326221 123.807361 
L 112.643773 122.710037 
L 112.961325 120.614313 
L 113.278877 119.771506 
L 113.596429 116.957541 
L 113.913981 117.279927 
L 114.231533 116.127533 
L 114.549085 112.132556 
L 114.866637 112.507829 
L 115.184189 108.840617 
L 115.501741 111.580406 
L 115.819293 120.238476 
L 116.136845 120.719488 
L 116.454397 121.094968 
L 116.771949 124.293124 
L 117.089501 125.833716 
L 117.407052 125.640256 
L 117.724604 125.833715 
L 118.042156 125.893891 
L 118.359708 125.815722 
L 118.67726 126.142323 
L 118.994812 126.30061 
L 119.312364 126.299293 
L 119.629916 126.493288 
L 119.947468 126.539878 
L 120.26502 126.712992 
L 120.582572 126.543046 
L 120.900124 126.375164 
L 121.217676 126.674327 
L 121.535228 126.375163 
L 121.85278 125.780784 
L 122.170332 125.95418 
L 122.487884 125.870773 
L 122.805436 125.617396 
L 123.122987 125.994629 
L 123.440539 126.089309 
L 123.758091 125.886659 
L 124.075643 126.322842 
L 124.393195 126.584096 
L 124.710747 125.970282 
L 125.028299 125.707818 
L 125.345851 126.319658 
L 125.663403 125.872065 
L 125.980955 125.158256 
L 126.298507 124.476073 
L 126.616059 123.471753 
L 126.933611 123.666344 
L 127.251163 123.933352 
L 127.568715 123.355543 
L 127.886267 124.077323 
L 128.203819 125.65479 
L 128.521371 126.172468 
L 128.838922 126.193677 
L 129.156474 126.351248 
L 129.474026 126.370493 
L 129.791578 126.250421 
L 130.10913 126.372599 
L 130.426682 126.504059 
L 130.744234 126.484822 
L 131.061786 126.297197 
L 131.379338 126.312257 
L 131.69689 126.422972 
L 132.014442 126.310132 
L 132.331994 126.133339 
L 132.649546 126.109064 
L 132.967098 126.37683 
L 133.28465 126.425057 
L 133.602202 126.404358 
L 133.919754 126.419855 
L 134.237306 126.571643 
L 134.554857 126.650612 
L 134.872409 126.651046 
L 135.189961 126.525888 
L 135.507513 126.376837 
L 135.825065 126.447931 
L 136.142617 126.318608 
L 136.460169 126.167208 
L 136.777721 126.535244 
L 137.095273 126.44142 
L 137.412825 126.060198 
L 137.730377 126.09944 
L 138.047929 126.182869 
L 138.365481 126.184147 
L 138.683033 126.323183 
L 139.000585 126.34401 
L 139.318137 126.152709 
L 139.635689 125.943819 
L 139.953241 126.149599 
L 140.270792 125.939582 
L 140.588344 125.767007 
L 140.905896 126.316952 
L 141.223448 126.708208 
L 141.541 126.639186 
L 141.858552 126.693397 
L 142.176104 126.711947 
L 142.493656 126.486937 
L 142.811208 126.56539 
L 143.12876 126.602343 
L 143.446312 126.445844 
L 143.763864 126.484821 
L 144.081416 126.405307 
L 144.398968 126.376842 
L 144.71652 126.128049 
L 145.034072 126.123606 
L 145.351624 125.793485 
L 145.669176 125.407415 
L 145.986727 125.939586 
L 146.304279 125.813851 
L 146.621831 125.10002 
L 146.939383 125.6704 
L 147.256935 125.757489 
L 147.574487 125.485372 
L 147.892039 125.925821 
L 148.209591 125.66728 
L 148.527143 125.310705 
L 148.844695 125.72466 
L 149.162247 125.636106 
L 149.479799 125.014268 
L 149.797351 125.037361 
L 150.114903 125.08732 
L 150.432455 124.755678 
L 150.750007 123.333066 
L 151.067559 124.073807 
L 151.385111 125.222837 
L 151.702662 124.439683 
L 152.020214 125.346706 
L 152.337766 126.334622 
L 152.655318 126.470009 
L 152.97287 126.155562 
L 153.290422 125.698469 
L 153.607974 125.903595 
L 153.925526 126.14336 
L 154.243078 125.733136 
L 154.56063 125.932347 
L 154.878182 126.224378 
L 155.195734 125.320105 
L 155.513286 123.171075 
L 155.830838 123.632032 
L 156.14839 124.310237 
L 156.465942 123.524973 
L 156.783494 124.56221 
L 157.101046 126.135453 
L 157.418597 126.818998 
L 157.736149 126.671151 
L 158.053701 126.536279 
L 158.371253 126.445659 
L 158.688805 125.992635 
L 159.006357 125.412349 
L 159.323909 125.072706 
L 159.641461 124.817343 
L 159.959013 123.373211 
L 160.276565 122.568672 
L 160.594117 123.670499 
L 160.911669 122.83335 
L 161.229221 123.865583 
L 161.546773 125.434439 
L 161.864325 125.104263 
L 162.181877 125.451072 
L 162.499429 125.900414 
L 162.816981 125.432366 
L 163.134532 125.443046 
L 163.452084 125.648574 
L 163.769636 125.690786 
L 164.087188 125.330497 
L 164.40474 125.500219 
L 164.722292 126.059167 
L 165.039844 125.785011 
L 165.357396 125.951065 
L 165.674948 126.194732 
L 165.9925 125.961815 
L 166.310052 125.612191 
L 166.627604 125.644207 
L 166.945156 125.88349 
L 167.262708 125.51398 
L 167.58026 125.431323 
L 167.897812 125.859119 
L 168.215364 125.702622 
L 168.532916 125.849592 
L 168.850467 125.648572 
L 169.168019 125.545741 
L 169.485571 125.985354 
L 169.803123 126.120626 
L 170.120675 126.134391 
L 170.438227 126.022781 
L 170.755779 126.377892 
L 171.073331 126.3606 
L 171.390883 126.243437 
L 171.708435 126.501975 
L 172.025987 126.577994 
L 172.343539 126.517582 
L 172.661091 126.629868 
L 172.978643 126.552907 
L 173.296195 126.627754 
L 173.613747 126.676594 
L 173.931299 126.611868 
L 174.248851 126.582239 
L 174.566402 126.381392 
L 174.883954 126.462587 
L 175.201506 126.594484 
L 175.519058 126.339778 
L 175.83661 126.371006 
L 176.154162 126.571635 
L 176.471714 126.438565 
L 176.789266 126.480586 
L 177.106818 126.576829 
L 177.42437 126.59281 
L 177.741922 126.447924 
L 178.059474 126.213793 
L 178.377026 126.423414 
L 178.694578 126.334624 
L 179.01213 126.159798 
L 179.329682 126.304477 
L 179.647234 126.2032 
L 179.964786 126.303441 
L 180.282337 126.440358 
L 180.599889 126.516524 
L 180.917441 126.512359 
L 181.234993 126.623598 
L 181.552545 126.692328 
L 181.870097 126.575781 
L 182.187649 126.455179 
L 182.505201 126.550467 
L 182.822753 126.594501 
L 183.140305 126.47529 
L 183.457857 126.434404 
L 183.775409 126.626687 
L 184.092961 126.573706 
L 184.410513 126.640446 
L 184.728065 126.804454 
L 185.045617 126.731514 
L 185.363169 126.513406 
L 185.680721 126.382127 
L 185.998272 126.553949 
L 186.315824 126.223317 
L 186.633376 126.076166 
L 186.950928 126.55396 
L 187.26848 126.615041 
L 187.586032 126.533169 
L 187.903584 126.656335 
L 188.221136 126.467669 
L 188.538688 126.261437 
L 188.85624 125.63091 
L 189.173792 125.72573 
L 189.491344 125.911556 
L 189.808896 124.900981 
L 190.126448 125.16314 
L 190.444 125.520337 
L 190.761552 125.244011 
L 191.079104 124.857544 
L 191.396656 125.441981 
L 191.714207 125.887658 
L 192.031759 126.371547 
L 192.349311 126.484304 
L 192.666863 126.422368 
L 192.984415 126.737932 
L 193.301967 126.615047 
L 193.619519 126.48639 
L 193.937071 126.549409 
L 194.254623 126.210933 
L 194.572175 126.362018 
L 194.889727 126.514469 
L 195.207279 126.39386 
L 195.524831 126.358835 
L 195.842383 126.441693 
L 196.159935 126.530354 
L 196.477487 126.504056 
L 196.795039 126.706093 
L 197.112591 126.636072 
L 197.430142 126.402248 
L 197.747694 126.486374 
L 198.065246 126.448831 
L 198.382798 126.464555 
L 198.70035 126.673267 
L 199.017902 126.702914 
L 199.335454 126.753534 
L 199.653006 126.498578 
L 199.970558 126.289927 
L 200.28811 126.385311 
L 200.605662 126.008231 
L 200.923214 125.597618 
L 201.240766 125.683915 
L 201.558318 122.696768 
L 201.87587 117.644778 
L 202.193422 118.190942 
L 202.510974 116.767486 
L 202.828526 115.30174 
L 203.146077 120.98909 
L 203.463629 124.090446 
L 203.781181 123.663378 
L 204.098733 124.767112 
L 204.416285 125.902527 
L 204.733837 125.196405 
L 205.051389 125.196372 
L 205.368941 125.568533 
L 205.686493 124.839589 
L 206.004045 124.280664 
L 206.321597 124.912627 
L 206.639149 124.939649 
L 206.956701 123.492923 
L 207.274253 123.578681 
L 207.591805 124.456318 
L 207.909357 121.68783 
L 208.226909 117.506538 
L 208.544461 118.144363 
L 208.862012 118.496097 
L 209.179564 116.86756 
L 209.497116 118.792336 
L 209.814668 120.989093 
L 210.13222 121.645648 
L 210.449772 122.784643 
L 210.767324 123.810826 
L 211.084876 124.659611 
L 211.402428 124.803585 
L 211.71998 124.331586 
L 212.037532 124.608791 
L 212.355084 123.99169 
L 212.672636 123.519394 
L 212.990188 123.461572 
L 213.30774 123.676082 
L 213.625292 123.375295 
L 213.942844 123.58292 
L 214.260396 123.661149 
L 214.577947 122.20447 
L 214.895499 122.81294 
L 215.213051 123.031328 
L 215.530603 121.843128 
z
" clip-path="url(#p833873ebd4)" style="fill: #e74c3c"/>
   </g>
   <g id="patch_75">
    <path d="M 215.848155 97.953463 
L 57.072183 97.953463 
L 57.072183 97.905268 
L 57.389735 97.7685 
L 57.707287 97.683621 
L 58.024839 97.817997 
L 58.342391 97.789767 
L 58.659943 97.660427 
L 58.977495 97.750125 
L 59.295047 97.817997 
L 59.612599 97.780815 
L 59.930151 97.673434 
L 60.247702 97.43303 
L 60.565254 97.46898 
L 60.882806 97.540455 
L 61.200358 97.353053 
L 61.51791 97.445534 
L 61.835462 97.484169 
L 62.153014 97.230614 
L 62.470566 97.282123 
L 62.788118 96.157461 
L 63.10567 94.47918 
L 63.423222 95.135078 
L 63.740774 93.480502 
L 64.058326 84.58044 
L 64.375878 86.428375 
L 64.69343 90.516775 
L 65.010982 84.410557 
L 65.328534 88.34177 
L 65.646086 94.982692 
L 65.963637 94.98812 
L 66.281189 95.602637 
L 66.598741 97.52253 
L 66.916293 97.846653 
L 67.233845 97.609507 
L 67.551397 97.759402 
L 67.868949 97.91126 
L 68.186501 97.742449 
L 68.504053 97.817902 
L 68.821605 97.841443 
L 69.139157 97.825575 
L 69.456709 97.900058 
L 69.774261 97.82972 
L 70.091813 97.774421 
L 70.409365 97.67343 
L 70.726917 97.711756 
L 71.044469 97.88052 
L 71.362021 97.705385 
L 71.679572 97.618751 
L 71.997124 97.814066 
L 72.314676 97.758085 
L 72.632228 97.563475 
L 72.94978 97.756793 
L 73.267332 97.920212 
L 73.584884 97.812787 
L 73.902436 97.853166 
L 74.219988 97.953463 
L 74.53754 97.491119 
L 74.855092 97.002118 
L 75.172644 97.388217 
L 75.490196 97.420241 
L 75.807748 97.129047 
L 76.1253 96.88702 
L 76.442852 97.259288 
L 76.760404 97.738622 
L 77.077956 97.883125 
L 77.395507 97.894634 
L 77.713059 97.838838 
L 78.030611 97.846653 
L 78.348163 97.935558 
L 78.665715 97.854468 
L 78.983267 97.826854 
L 79.300819 97.923504 
L 79.618371 97.953463 
L 79.935923 97.953463 
L 80.253475 97.866499 
L 80.571027 97.812787 
L 80.888579 97.91126 
L 81.206131 97.868797 
L 81.523683 97.769305 
L 81.841235 97.846653 
L 82.158787 97.906571 
L 82.476339 97.812787 
L 82.793891 97.883125 
L 83.111442 97.825575 
L 83.428994 97.745054 
L 83.746546 97.902308 
L 84.064098 97.907873 
L 84.38165 97.812787 
L 84.699202 97.881822 
L 85.016754 97.953463 
L 85.334306 97.953463 
L 85.651858 97.953463 
L 85.96941 97.953463 
L 86.286962 97.863586 
L 86.604514 97.814066 
L 86.922066 97.849258 
L 87.239618 97.714314 
L 87.55717 97.754172 
L 87.874722 97.789767 
L 88.192274 97.495023 
L 88.509826 97.502086 
L 88.827377 97.650005 
L 89.144929 97.138896 
L 89.462481 97.222804 
L 89.780033 97.768026 
L 90.097585 97.543208 
L 90.415137 97.26969 
L 90.732689 97.52383 
L 91.050241 97.776319 
L 91.367793 97.719462 
L 91.685345 97.522385 
L 92.002897 97.601816 
L 92.320449 97.70208 
L 92.638001 97.652949 
L 92.955553 97.660408 
L 93.273105 97.807671 
L 93.590657 97.560145 
L 93.908209 97.316653 
L 94.225761 97.488519 
L 94.543312 97.685163 
L 94.860864 97.817902 
L 95.178416 97.761987 
L 95.495968 97.742449 
L 95.81352 97.89615 
L 96.131072 97.87673 
L 96.448624 97.812787 
L 96.766176 97.909981 
L 97.083728 97.730747 
L 97.40128 97.323047 
L 97.718832 97.390825 
L 98.036384 97.669573 
L 98.353936 96.614609 
L 98.671488 96.372356 
L 98.98904 97.26423 
L 99.306592 96.516919 
L 99.624144 96.490607 
L 99.941696 97.437719 
L 100.259247 97.819182 
L 100.576799 97.812787 
L 100.894351 97.828133 
L 101.211903 97.785433 
L 101.529455 97.742449 
L 101.847007 97.887032 
L 102.164559 97.930443 
L 102.482111 97.883125 
L 102.799663 97.898755 
L 103.117215 97.883125 
L 103.434767 97.913083 
L 103.752319 97.933001 
L 104.069871 97.858376 
L 104.387423 97.612052 
L 104.704975 97.661737 
L 105.022527 97.794883 
L 105.340079 97.604443 
L 105.657631 97.58009 
L 105.975182 97.672111 
L 106.292734 97.924049 
L 106.610286 97.803669 
L 106.927838 97.679926 
L 107.24539 97.721988 
L 107.562942 97.752869 
L 107.880494 97.755244 
L 108.198046 97.705982 
L 108.515598 97.612057 
L 108.83315 97.604433 
L 109.150702 97.618444 
L 109.468254 97.607023 
L 109.785806 97.655502 
L 110.103358 97.5914 
L 110.42091 97.678505 
L 110.738462 97.786746 
L 111.056014 97.465002 
L 111.373566 97.143362 
L 111.691117 96.553372 
L 112.008669 95.373004 
L 112.326221 94.008488 
L 112.643773 93.281031 
L 112.961325 92.146069 
L 113.278877 91.105934 
L 113.596429 86.567901 
L 113.913981 88.814466 
L 114.231533 91.955917 
L 114.549085 86.1023 
L 114.866637 86.343884 
L 115.184189 88.130353 
L 115.501741 89.443595 
L 115.819293 93.819653 
L 116.136845 95.103191 
L 116.454397 95.317414 
L 116.771949 96.883178 
L 117.089501 97.627872 
L 117.407052 97.528945 
L 117.724604 97.730746 
L 118.042156 97.679789 
L 118.359708 97.673449 
L 118.67726 97.881846 
L 118.994812 97.816694 
L 119.312364 97.770584 
L 119.629916 97.89094 
L 119.947468 97.760685 
L 120.26502 97.747564 
L 120.582572 97.695581 
L 120.900124 97.496973 
L 121.217676 97.575772 
L 121.535228 96.916413 
L 121.85278 96.425764 
L 122.170332 97.078813 
L 122.487884 96.583346 
L 122.805436 96.473988 
L 123.122987 97.508029 
L 123.440539 97.482906 
L 123.758091 97.246244 
L 124.075643 97.538008 
L 124.393195 97.660627 
L 124.710747 97.259281 
L 125.028299 97.104402 
L 125.345851 97.403853 
L 125.663403 96.947112 
L 125.980955 96.374962 
L 126.298507 95.704185 
L 126.616059 95.122046 
L 126.933611 94.898599 
L 127.251163 95.218428 
L 127.568715 95.107031 
L 127.886267 95.675562 
L 128.203819 96.975346 
L 128.521371 97.383154 
L 128.838922 97.24104 
L 129.156474 97.223295 
L 129.474026 97.484611 
L 129.791578 97.650384 
L 130.10913 97.664306 
L 130.426682 97.599245 
L 130.744234 97.521083 
L 131.061786 97.594133 
L 131.379338 97.77892 
L 131.69689 97.687473 
L 132.014442 97.577082 
L 132.331994 97.724218 
L 132.649546 97.812787 
L 132.967098 97.875309 
L 133.28465 97.728381 
L 133.602202 97.752869 
L 133.919754 97.853711 
L 134.237306 97.782828 
L 134.554857 97.810229 
L 134.872409 97.874007 
L 135.189961 97.799998 
L 135.507513 97.70728 
L 135.825065 97.82046 
L 136.142617 97.849258 
L 136.460169 97.748962 
L 136.777721 97.84348 
L 137.095273 97.860981 
L 137.412825 97.746286 
L 137.730377 97.781525 
L 138.047929 97.774421 
L 138.365481 97.71249 
L 138.683033 97.74117 
L 139.000585 97.763297 
L 139.318137 97.415126 
L 139.635689 97.221496 
L 139.953241 97.490579 
L 140.270792 97.389525 
L 140.588344 97.114707 
L 140.905896 97.435588 
L 141.223448 97.785439 
L 141.541 97.742449 
L 141.858552 97.82972 
L 142.176104 97.848595 
L 142.493656 97.854468 
L 142.811208 97.929164 
L 143.12876 97.88573 
L 143.446312 97.816623 
L 143.763864 97.875309 
L 144.081416 97.842201 
L 144.398968 97.739848 
L 144.71652 97.64349 
L 145.034072 97.719429 
L 145.351624 97.635676 
L 145.669176 97.307701 
L 145.986727 97.217588 
L 146.304279 97.312816 
L 146.621831 97.11733 
L 146.939383 96.977809 
L 147.256935 97.260577 
L 147.574487 97.385712 
L 147.892039 97.523686 
L 148.209591 97.383154 
L 148.527143 97.297043 
L 148.844695 97.394735 
L 149.162247 97.316653 
L 149.479799 97.013122 
L 149.797351 96.821797 
L 150.114903 96.989678 
L 150.432455 97.127391 
L 150.750007 96.644542 
L 151.067559 96.944553 
L 151.385111 97.337434 
L 151.702662 96.56988 
L 152.020214 96.97796 
L 152.337766 97.594154 
L 152.655318 97.596606 
L 152.97287 97.359566 
L 153.290422 97.181092 
L 153.607974 97.214982 
L 153.925526 97.19645 
L 154.243078 96.699265 
L 154.56063 96.493167 
L 154.878182 96.863344 
L 155.195734 96.32948 
L 155.513286 94.920178 
L 155.830838 95.569926 
L 156.14839 95.851383 
L 156.465942 95.633868 
L 156.783494 96.589857 
L 157.101046 97.15768 
L 157.418597 97.681089 
L 157.736149 97.76329 
L 158.053701 97.582645 
L 158.371253 97.485914 
L 158.688805 97.314095 
L 159.006357 97.086051 
L 159.323909 97.021282 
L 159.641461 96.69143 
L 159.959013 95.268155 
L 160.276565 95.13637 
L 160.594117 96.369125 
L 160.911669 94.927993 
L 161.229221 94.963151 
L 161.546773 96.555814 
L 161.864325 96.520818 
L 162.181877 96.676009 
L 162.499429 96.464814 
L 162.816981 96.426672 
L 163.134532 96.774787 
L 163.452084 96.457365 
L 163.769636 96.520824 
L 164.087188 96.554536 
L 164.40474 96.675799 
L 164.722292 96.940732 
L 165.039844 96.855545 
L 165.357396 97.122293 
L 165.674948 97.040494 
L 165.9925 96.916765 
L 166.310052 97.062197 
L 166.627604 97.113411 
L 166.945156 97.092876 
L 167.262708 96.979278 
L 167.58026 97.305143 
L 167.897812 97.010529 
L 168.215364 96.88701 
L 168.532916 97.268387 
L 168.850467 96.803874 
L 169.168019 96.850335 
L 169.485571 97.371653 
L 169.803123 97.353054 
L 170.120675 96.839915 
L 170.438227 97.050698 
L 170.755779 97.45856 
L 171.073331 97.190053 
L 171.390883 97.177221 
L 171.708435 97.439424 
L 172.025987 97.601827 
L 172.343539 97.617166 
L 172.661091 97.764592 
L 172.978643 97.769305 
L 173.296195 97.677326 
L 173.613747 97.745007 
L 173.931299 97.648699 
L 174.248851 97.70209 
L 174.566402 97.88824 
L 174.883954 97.750264 
L 175.201506 97.723266 
L 175.519058 97.841443 
L 175.83661 97.774421 
L 176.154162 97.825812 
L 176.471714 97.862663 
L 176.789266 97.903966 
L 177.106818 97.953463 
L 177.42437 97.864889 
L 177.741922 97.544274 
L 178.059474 97.450745 
L 178.377026 97.692958 
L 178.694578 97.52894 
L 179.01213 97.376499 
L 179.329682 97.589035 
L 179.647234 97.784131 
L 179.964786 97.792325 
L 180.282337 97.739844 
L 180.599889 97.72966 
L 180.917441 97.847956 
L 181.234993 97.830691 
L 181.552545 97.851863 
L 181.870097 97.879288 
L 182.187649 97.883125 
L 182.505201 97.943042 
L 182.822753 97.842201 
L 183.140305 97.764592 
L 183.457857 97.86522 
L 183.775409 97.870099 
L 184.092961 97.823018 
L 184.410513 97.798459 
L 184.728065 97.83197 
L 185.045617 97.924806 
L 185.363169 97.719429 
L 185.680721 97.604413 
L 185.998272 97.682342 
L 186.315824 97.642181 
L 186.633376 97.583599 
L 186.950928 97.7335 
L 187.26848 97.782828 
L 187.586032 97.82046 
L 187.903584 97.730746 
L 188.221136 97.52383 
L 188.538688 97.642195 
L 188.85624 97.323047 
L 189.173792 97.28532 
L 189.491344 97.629949 
L 189.808896 97.340028 
L 190.126448 97.174714 
L 190.444 97.390827 
L 190.761552 97.501544 
L 191.079104 97.141452 
L 191.396656 97.091286 
L 191.714207 97.540446 
L 192.031759 97.700785 
L 192.349311 97.440703 
L 192.666863 97.582274 
L 192.984415 97.903587 
L 193.301967 97.699465 
L 193.619519 97.700246 
L 193.937071 97.860981 
L 194.254623 97.672132 
L 194.572175 97.508057 
L 194.889727 97.651307 
L 195.207279 97.732229 
L 195.524831 97.467678 
L 195.842383 97.58903 
L 196.159935 97.924806 
L 196.477487 97.830691 
L 196.795039 97.808879 
L 197.112591 97.79744 
L 197.430142 97.788038 
L 197.747694 97.79744 
L 198.065246 97.686444 
L 198.382798 97.727102 
L 198.70035 97.751567 
L 199.017902 97.77371 
L 199.335454 97.863942 
L 199.653006 97.746367 
L 199.970558 97.484185 
L 200.28811 97.489819 
L 200.605662 97.434316 
L 200.923214 96.96496 
L 201.240766 96.920273 
L 201.558318 93.327348 
L 201.87587 89.965309 
L 202.193422 90.637898 
L 202.510974 88.662297 
L 202.828526 87.389712 
L 203.146077 91.257841 
L 203.463629 94.802696 
L 203.781181 95.193673 
L 204.098733 95.600619 
L 204.416285 96.493482 
L 204.733837 96.26683 
L 205.051389 95.943862 
L 205.368941 96.306469 
L 205.686493 96.195216 
L 206.004045 95.419045 
L 206.321597 95.611741 
L 206.639149 95.646664 
L 206.956701 94.573733 
L 207.274253 94.345815 
L 207.591805 95.59167 
L 207.909357 92.763414 
L 208.226909 88.159765 
L 208.544461 90.301875 
L 208.862012 90.84891 
L 209.179564 87.674936 
L 209.497116 91.146847 
L 209.814668 94.341907 
L 210.13222 93.674881 
L 210.449772 94.555504 
L 210.767324 95.430545 
L 211.084876 96.184799 
L 211.402428 95.702917 
L 211.71998 94.780971 
L 212.037532 95.400771 
L 212.355084 94.695288 
L 212.672636 93.569589 
L 212.990188 93.690215 
L 213.30774 93.473214 
L 213.625292 91.260659 
L 213.942844 91.493569 
L 214.260396 93.398671 
L 214.577947 90.368301 
L 214.895499 91.824567 
L 215.213051 94.095752 
L 215.530603 92.318154 
z
" clip-path="url(#p833873ebd4)" style="fill: #e74c3c"/>
   </g>
   <g id="patch_76">
    <path d="M 215.848155 68.993337 
L 57.072183 68.993337 
L 57.072183 68.690183 
L 57.389735 68.646501 
L 57.707287 68.620023 
L 58.024839 68.75825 
L 58.342391 68.737299 
L 58.659943 68.563006 
L 58.977495 68.454793 
L 59.295047 68.587426 
L 59.612599 68.671727 
L 59.930151 68.216172 
L 60.247702 67.655186 
L 60.565254 68.284264 
L 60.882806 68.356433 
L 61.200358 67.30029 
L 61.51791 67.361941 
L 61.835462 68.274443 
L 62.153014 68.000374 
L 62.470566 67.734649 
L 62.788118 66.539827 
L 63.10567 64.547589 
L 63.423222 65.20774 
L 63.740774 63.229627 
L 64.058326 53.459145 
L 64.375878 54.219583 
L 64.69343 58.729693 
L 65.010982 52.556051 
L 65.328534 56.623015 
L 65.646086 65.301511 
L 65.963637 65.216029 
L 66.281189 64.944405 
L 66.598741 67.935189 
L 66.916293 68.253428 
L 67.233845 67.415562 
L 67.551397 68.261133 
L 67.868949 68.893699 
L 68.186501 68.518022 
L 68.504053 68.646493 
L 68.821605 68.966364 
L 69.139157 68.732246 
L 69.456709 68.77751 
L 69.774261 68.936814 
L 70.091813 68.728481 
L 70.409365 68.349788 
L 70.726917 68.49389 
L 71.044469 68.714592 
L 71.362021 68.416966 
L 71.679572 68.440974 
L 71.997124 68.698212 
L 72.314676 68.665766 
L 72.632228 68.444717 
L 72.94978 68.628513 
L 73.267332 68.826845 
L 73.584884 68.598961 
L 73.902436 68.537318 
L 74.219988 68.771362 
L 74.53754 68.548888 
L 74.855092 68.023476 
L 75.172644 68.424288 
L 75.490196 68.628859 
L 75.807748 68.501333 
L 76.1253 68.183649 
L 76.442852 68.285536 
L 76.760404 68.746137 
L 77.077956 68.899556 
L 77.395507 68.867229 
L 77.713059 68.873881 
L 78.030611 68.879016 
L 78.348163 68.852102 
L 78.665715 68.89185 
L 78.983267 68.814252 
L 79.300819 68.82634 
L 79.618371 68.950442 
L 79.935923 68.939367 
L 80.253475 68.782705 
L 80.571027 68.780095 
L 80.888579 68.886128 
L 81.206131 68.796795 
L 81.523683 68.59858 
L 81.841235 68.6709 
L 82.158787 68.81479 
L 82.476339 68.815514 
L 82.793891 68.780095 
L 83.111442 68.733508 
L 83.428994 68.801935 
L 83.746546 68.93279 
L 84.064098 68.78909 
L 84.38165 68.797844 
L 84.699202 68.923947 
L 85.016754 68.81045 
L 85.334306 68.655508 
L 85.651858 68.838198 
L 85.96941 68.875165 
L 86.286962 68.70046 
L 86.604514 68.642731 
L 86.922066 68.862288 
L 87.239618 68.820551 
L 87.55717 68.519314 
L 87.874722 68.395532 
L 88.192274 68.453825 
L 88.509826 68.327417 
L 88.827377 68.03892 
L 89.144929 67.952847 
L 89.462481 67.922019 
L 89.780033 68.469938 
L 90.097585 68.457674 
L 90.415137 68.218752 
L 90.732689 68.292114 
L 91.050241 68.66577 
L 91.367793 68.889916 
L 91.685345 68.627226 
L 92.002897 68.622551 
L 92.320449 68.861029 
L 92.638001 68.791543 
L 92.955553 68.81993 
L 93.273105 68.92395 
L 93.590657 68.85976 
L 93.908209 68.891183 
L 94.225761 68.993337 
L 94.543312 68.993337 
L 94.860864 68.935302 
L 95.178416 68.84948 
L 95.495968 68.766313 
L 95.81352 68.7454 
L 96.131072 68.811729 
L 96.448624 68.7377 
L 96.766176 68.54686 
L 97.083728 68.534743 
L 97.40128 68.454794 
L 97.718832 68.452545 
L 98.036384 68.811711 
L 98.353936 67.733181 
L 98.671488 67.55205 
L 98.98904 68.621281 
L 99.306592 67.933583 
L 99.624144 67.246569 
L 99.941696 68.080012 
L 100.259247 68.785232 
L 100.576799 68.925232 
L 100.894351 68.923947 
L 101.211903 68.953502 
L 101.529455 68.976936 
L 101.847007 68.812215 
L 102.164559 68.819293 
L 102.482111 68.822485 
L 102.799663 68.663212 
L 103.117215 68.736036 
L 103.434767 68.858472 
L 103.752319 68.981983 
L 104.069871 68.970216 
L 104.387423 68.791543 
L 104.704975 68.836615 
L 105.022527 68.95424 
L 105.340079 68.708171 
L 105.657631 68.539283 
L 105.975182 68.774963 
L 106.292734 68.898739 
L 106.610286 68.807071 
L 106.927838 68.78652 
L 107.24539 68.947932 
L 107.562942 68.94323 
L 107.880494 68.829392 
L 108.198046 68.77624 
L 108.515598 68.765049 
L 108.83315 68.672196 
L 109.150702 68.399301 
L 109.468254 68.556563 
L 109.785806 68.908814 
L 110.103358 68.458965 
L 110.42091 68.394251 
L 110.738462 68.765966 
L 111.056014 68.332476 
L 111.373566 67.766587 
L 111.691117 66.949613 
L 112.008669 65.820148 
L 112.326221 65.125531 
L 112.643773 65.002887 
L 112.961325 63.774176 
L 113.278877 61.822127 
L 113.596429 56.999398 
L 113.913981 59.458624 
L 114.231533 62.300775 
L 114.549085 56.108867 
L 114.866637 53.871484 
L 115.184189 55.127642 
L 115.501741 57.397604 
L 115.819293 62.754226 
L 116.136845 63.823655 
L 116.454397 64.322675 
L 116.771949 66.909827 
L 117.089501 68.204626 
L 117.407052 68.509026 
L 117.724604 68.676035 
L 118.042156 68.313555 
L 118.359708 68.256011 
L 118.67726 68.490102 
L 118.994812 68.110856 
L 119.312364 68.279502 
L 119.629916 68.479491 
L 119.947468 68.198211 
L 120.26502 68.394271 
L 120.582572 68.613097 
L 120.900124 68.230314 
L 121.217676 68.345916 
L 121.535228 68.036095 
L 121.85278 67.627851 
L 122.170332 67.97429 
L 122.487884 67.982397 
L 122.805436 67.763667 
L 123.122987 68.169934 
L 123.440539 68.351387 
L 123.758091 68.232892 
L 124.075643 68.271421 
L 124.393195 68.220216 
L 124.710747 68.291973 
L 125.028299 68.492623 
L 125.345851 68.511622 
L 125.663403 68.346343 
L 125.980955 68.040203 
L 126.298507 67.09018 
L 126.616059 66.930343 
L 126.933611 67.444575 
L 127.251163 66.983018 
L 127.568715 66.817769 
L 127.886267 67.406916 
L 128.203819 68.127544 
L 128.521371 68.128166 
L 128.838922 68.081316 
L 129.156474 68.502721 
L 129.474026 68.561712 
L 129.791578 68.565776 
L 130.10913 68.679891 
L 130.426682 68.565777 
L 130.744234 68.491078 
L 131.061786 68.722168 
L 131.379338 68.909826 
L 131.69689 68.73101 
L 132.014442 68.718443 
L 132.331994 68.80708 
L 132.649546 68.680546 
L 132.967098 68.524461 
L 133.28465 68.705783 
L 133.602202 68.84306 
L 133.919754 68.695684 
L 134.237306 68.74925 
L 134.554857 68.960535 
L 134.872409 68.895705 
L 135.189961 68.794066 
L 135.507513 68.827637 
L 135.825065 68.892437 
L 136.142617 68.744115 
L 136.460169 68.663211 
L 136.777721 68.77388 
L 137.095273 68.765976 
L 137.412825 68.327438 
L 137.730377 68.366481 
L 138.047929 68.743609 
L 138.365481 68.618242 
L 138.683033 68.434632 
L 139.000585 68.619517 
L 139.318137 68.428328 
L 139.635689 68.264994 
L 139.953241 68.664158 
L 140.270792 68.724856 
L 140.588344 68.369048 
L 140.905896 68.514069 
L 141.223448 68.872581 
L 141.541 68.923947 
L 141.858552 68.944507 
L 142.176104 68.923947 
L 142.493656 68.976632 
L 142.811208 68.964326 
L 143.12876 68.728733 
L 143.446312 68.690646 
L 143.763864 68.683742 
L 144.081416 68.467398 
L 144.398968 68.425562 
L 144.71652 68.362617 
L 145.034072 68.313563 
L 145.351624 68.358771 
L 145.669176 68.328688 
L 145.986727 68.262422 
L 146.304279 68.171033 
L 146.621831 68.113423 
L 146.939383 68.32364 
L 147.256935 68.086449 
L 147.574487 67.85194 
L 147.892039 68.330501 
L 148.209591 68.215178 
L 148.527143 67.835955 
L 148.844695 68.175069 
L 149.162247 68.157158 
L 149.479799 67.392779 
L 149.797351 67.141893 
L 150.114903 67.623991 
L 150.432455 67.1545 
L 150.750007 66.153162 
L 151.067559 66.909823 
L 151.385111 67.54435 
L 151.702662 67.038477 
L 152.020214 67.390205 
L 152.337766 68.063837 
L 152.655318 68.293263 
L 152.97287 67.65739 
L 153.290422 67.328533 
L 153.607974 67.89247 
L 153.925526 67.268008 
L 154.243078 66.525699 
L 154.56063 67.457187 
L 154.878182 67.564896 
L 155.195734 66.305716 
L 155.513286 65.602098 
L 155.830838 66.834156 
L 156.14839 66.586069 
L 156.465942 66.396512 
L 156.783494 67.577756 
L 157.101046 68.385731 
L 157.418597 68.741087 
L 157.736149 68.710717 
L 158.053701 68.652816 
L 158.371253 68.568146 
L 158.688805 68.140776 
L 159.006357 68.002958 
L 159.323909 68.215183 
L 159.641461 67.57262 
L 159.959013 65.907164 
L 160.276565 65.974622 
L 160.594117 66.93127 
L 160.911669 66.171158 
L 161.229221 65.925799 
L 161.546773 66.579386 
L 161.864325 67.016397 
L 162.181877 67.178467 
L 162.499429 66.791603 
L 162.816981 66.43688 
L 163.134532 66.801877 
L 163.452084 67.24657 
L 163.769636 67.170557 
L 164.087188 67.048568 
L 164.40474 67.463419 
L 164.722292 67.954107 
L 165.039844 67.981114 
L 165.357396 67.989428 
L 165.674948 68.164811 
L 165.9925 67.918169 
L 166.310052 67.611054 
L 166.627604 67.808973 
L 166.945156 68.178603 
L 167.262708 68.026073 
L 167.58026 68.16726 
L 167.897812 68.343372 
L 168.215364 68.182383 
L 168.532916 68.428136 
L 168.850467 68.202572 
L 169.168019 67.925869 
L 169.485571 68.149593 
L 169.803123 68.141682 
L 170.120675 67.868055 
L 170.438227 67.869614 
L 170.755779 68.225188 
L 171.073331 68.197523 
L 171.390883 68.191779 
L 171.708435 68.416951 
L 172.025987 68.687615 
L 172.343539 68.848317 
L 172.661091 68.782665 
L 172.978643 68.710812 
L 173.296195 68.688877 
L 173.613747 68.636425 
L 173.931299 68.642667 
L 174.248851 68.756985 
L 174.566402 68.782705 
L 174.883954 68.586123 
L 175.201506 68.613725 
L 175.519058 68.76855 
L 175.83661 68.836962 
L 176.154162 68.77624 
L 176.471714 68.762525 
L 176.789266 68.769815 
L 177.106818 68.704501 
L 177.42437 68.649061 
L 177.741922 68.630115 
L 178.059474 68.760843 
L 178.377026 68.803225 
L 178.694578 68.720891 
L 179.01213 68.817359 
L 179.329682 68.718376 
L 179.647234 68.587395 
L 179.964786 68.739821 
L 180.282337 68.518053 
L 180.599889 68.444703 
L 180.917441 68.550161 
L 181.234993 68.350133 
L 181.552545 68.430703 
L 181.870097 68.62759 
L 182.187649 68.679888 
L 182.505201 68.727415 
L 182.822753 68.725955 
L 183.140305 68.730003 
L 183.457857 68.834416 
L 183.775409 68.931657 
L 184.092961 68.878579 
L 184.410513 68.703038 
L 184.728065 68.778927 
L 185.045617 68.882855 
L 185.363169 68.445968 
L 185.680721 68.234162 
L 185.998272 68.709557 
L 186.315824 68.61438 
L 186.633376 68.227736 
L 186.950928 68.498934 
L 187.26848 68.785236 
L 187.586032 68.651545 
L 187.903584 68.547581 
L 188.221136 68.737315 
L 188.538688 68.810935 
L 188.85624 68.386689 
L 189.173792 68.245732 
L 189.491344 68.608669 
L 189.808896 68.345928 
L 190.126448 68.125637 
L 190.444 68.291978 
L 190.761552 68.578423 
L 191.079104 68.221495 
L 191.396656 68.193061 
L 191.714207 68.676763 
L 192.031759 68.8803 
L 192.349311 68.815488 
L 192.666863 68.7711 
L 192.984415 68.917658 
L 193.301967 68.8482 
L 193.619519 68.739816 
L 193.937071 68.696588 
L 194.254623 68.583435 
L 194.572175 68.326666 
L 194.889727 68.507768 
L 195.207279 68.598582 
L 195.524831 68.344646 
L 195.842383 68.462373 
L 196.159935 68.78909 
L 196.477487 68.78145 
L 196.795039 68.845615 
L 197.112591 68.801636 
L 197.430142 68.816075 
L 197.747694 68.857138 
L 198.065246 68.758262 
L 198.382798 68.667944 
L 198.70035 68.814767 
L 199.017902 68.861025 
L 199.335454 68.767572 
L 199.653006 68.72742 
L 199.970558 68.577136 
L 200.28811 68.077448 
L 200.605662 67.513939 
L 200.923214 67.427441 
L 201.240766 67.367648 
L 201.558318 63.783156 
L 201.87587 60.771547 
L 202.193422 60.056651 
L 202.510974 57.014416 
L 202.828526 56.47015 
L 203.146077 61.214034 
L 203.463629 64.777131 
L 203.781181 65.081846 
L 204.098733 66.448232 
L 204.416285 67.570039 
L 204.733837 66.964063 
L 205.051389 67.367085 
L 205.368941 67.854473 
L 205.686493 67.210375 
L 206.004045 66.566776 
L 206.321597 66.688842 
L 206.639149 66.416691 
L 206.956701 64.790263 
L 207.274253 64.646386 
L 207.591805 66.252734 
L 207.909357 64.388187 
L 208.226909 60.076616 
L 208.544461 60.765725 
L 208.862012 61.390794 
L 209.179564 60.043796 
L 209.497116 62.65074 
L 209.814668 65.202595 
L 210.13222 65.16053 
L 210.449772 65.383725 
L 210.767324 67.049823 
L 211.084876 67.841092 
L 211.402428 66.92391 
L 211.71998 65.91473 
L 212.037532 65.828181 
L 212.355084 64.958737 
L 212.672636 64.240465 
L 212.990188 63.826178 
L 213.30774 63.432477 
L 213.625292 62.239587 
L 213.942844 63.016269 
L 214.260396 63.455391 
L 214.577947 59.845977 
L 214.895499 61.841042 
L 215.213051 64.277719 
L 215.530603 62.086981 
z
" clip-path="url(#p833873ebd4)" style="fill: #e74c3c"/>
   </g>
   <g id="patch_77">
    <path d="M 215.848155 40.033212 
L 57.072183 40.033212 
L 57.072183 39.900051 
L 57.389735 40.007309 
L 57.707287 39.930285 
L 58.024839 39.65708 
L 58.342391 39.617921 
L 58.659943 39.748353 
L 58.977495 39.66393 
L 59.295047 39.652161 
L 59.612599 39.885487 
L 59.930151 39.940726 
L 60.247702 39.700275 
L 60.565254 39.830972 
L 60.882806 39.909706 
L 61.200358 39.447432 
L 61.51791 39.384538 
L 61.835462 39.711149 
L 62.153014 39.719978 
L 62.470566 39.456876 
L 62.788118 38.719856 
L 63.10567 37.844114 
L 63.423222 37.754239 
L 63.740774 35.500032 
L 64.058326 27.242398 
L 64.375878 28.238962 
L 64.69343 32.176453 
L 65.010982 26.755751 
L 65.328534 29.489304 
L 65.646086 36.545705 
L 65.963637 38.057223 
L 66.281189 37.915802 
L 66.598741 39.387876 
L 66.916293 39.823586 
L 67.233845 39.596114 
L 67.551397 39.790283 
L 67.868949 39.875818 
L 68.186501 39.731084 
L 68.504053 39.90124 
L 68.821605 39.986347 
L 69.139157 39.83707 
L 69.456709 39.869203 
L 69.774261 39.924672 
L 70.091813 39.78016 
L 70.409365 39.716284 
L 70.726917 39.896391 
L 71.044469 39.994971 
L 71.362021 39.79833 
L 71.679572 39.749569 
L 71.997124 39.938774 
L 72.314676 39.775472 
L 72.632228 39.627603 
L 72.94978 39.802611 
L 73.267332 39.907288 
L 73.584884 39.721227 
L 73.902436 39.755748 
L 74.219988 39.967817 
L 74.53754 39.653383 
L 74.855092 39.36727 
L 75.172644 39.776702 
L 75.490196 39.818902 
L 75.807748 39.43511 
L 76.1253 39.347906 
L 76.442852 39.798902 
L 76.760404 39.944809 
L 77.077956 39.980167 
L 77.395507 40.025945 
L 77.713059 39.912374 
L 78.030611 39.864276 
L 78.348163 39.961758 
L 78.665715 39.964133 
L 78.983267 39.843125 
L 79.300819 39.843305 
L 79.618371 39.993251 
L 79.935923 39.928409 
L 80.253475 39.900051 
L 80.571027 40.027047 
L 80.888579 39.915781 
L 81.206131 39.789027 
L 81.523683 39.852815 
L 81.841235 39.845772 
L 82.158787 39.754506 
L 82.476339 39.83707 
L 82.793891 40.013478 
L 83.111442 40.033212 
L 83.428994 40.033212 
L 83.746546 40.033212 
L 84.064098 40.033212 
L 84.38165 40.033212 
L 84.699202 40.033212 
L 85.016754 40.033212 
L 85.334306 40.033212 
L 85.651858 40.033212 
L 85.96941 40.02211 
L 86.286962 39.916071 
L 86.604514 39.898834 
L 86.922066 39.867977 
L 87.239618 39.840703 
L 87.55717 39.932089 
L 87.874722 39.854026 
L 88.192274 39.766834 
L 88.509826 39.604596 
L 88.827377 39.638576 
L 89.144929 39.498061 
L 89.462481 38.941815 
L 89.780033 39.258309 
L 90.097585 39.348774 
L 90.415137 39.018276 
L 90.732689 39.162646 
L 91.050241 39.542409 
L 91.367793 39.679679 
L 91.685345 39.736018 
L 92.002897 39.817691 
L 92.320449 39.863043 
L 92.638001 39.959339 
L 92.955553 40.033212 
L 93.273105 40.033212 
L 93.590657 40.033212 
L 93.908209 40.033212 
L 94.225761 40.033212 
L 94.543312 40.033212 
L 94.860864 40.033212 
L 95.178416 40.001139 
L 95.495968 39.91457 
L 95.81352 39.918536 
L 96.131072 39.962968 
L 96.448624 39.893879 
L 96.766176 39.788643 
L 97.083728 39.750808 
L 97.40128 39.413284 
L 97.718832 39.407975 
L 98.036384 39.929078 
L 98.353936 39.187232 
L 98.671488 38.739577 
L 98.98904 39.077907 
L 99.306592 38.539795 
L 99.624144 38.148023 
L 99.941696 38.935655 
L 100.259247 39.799537 
L 100.576799 39.860576 
L 100.894351 39.801946 
L 101.211903 39.946899 
L 101.529455 39.972662 
L 101.847007 39.770544 
L 102.164559 39.722055 
L 102.482111 39.934559 
L 102.799663 40.019645 
L 103.117215 39.782567 
L 103.434767 39.80999 
L 103.752319 40.025945 
L 104.069871 39.966598 
L 104.387423 39.983554 
L 104.704975 40.033212 
L 105.022527 40.033212 
L 105.340079 40.030745 
L 105.657631 39.91699 
L 105.975182 39.913607 
L 106.292734 39.993243 
L 106.610286 39.871663 
L 106.927838 39.877846 
L 107.24539 40.01505 
L 107.562942 40.033212 
L 107.880494 39.967809 
L 108.198046 39.929627 
L 108.515598 39.91699 
L 108.83315 39.906203 
L 109.150702 39.772885 
L 109.468254 39.780405 
L 109.785806 39.858869 
L 110.103358 39.742187 
L 110.42091 39.84918 
L 110.738462 40.00854 
L 111.056014 39.921821 
L 111.373566 39.69901 
L 111.691117 39.48076 
L 112.008669 39.385435 
L 112.326221 38.804937 
L 112.643773 38.203724 
L 112.961325 38.092142 
L 113.278877 38.352649 
L 113.596429 36.85399 
L 113.913981 37.23872 
L 114.231533 38.545971 
L 114.549085 37.601957 
L 114.866637 37.722178 
L 115.184189 38.267891 
L 115.501741 38.912223 
L 115.819293 39.147758 
L 116.136845 39.292214 
L 116.454397 39.604062 
L 116.771949 39.59491 
L 117.089501 39.622558 
L 117.407052 39.713571 
L 117.724604 39.81987 
L 118.042156 39.677263 
L 118.359708 39.748355 
L 118.67726 39.895206 
L 118.994812 39.687929 
L 119.312364 39.70632 
L 119.629916 39.921 
L 119.947468 39.827268 
L 120.26502 39.788624 
L 120.582572 39.869211 
L 120.900124 39.843126 
L 121.217676 39.796442 
L 121.535228 38.830894 
L 121.85278 38.654485 
L 122.170332 39.343073 
L 122.487884 38.650788 
L 122.805436 38.629919 
L 123.122987 39.417847 
L 123.440539 39.465357 
L 123.758091 39.447454 
L 124.075643 39.655864 
L 124.393195 39.304332 
L 124.710747 38.918382 
L 125.028299 39.065785 
L 125.345851 39.383307 
L 125.663403 38.892661 
L 125.980955 38.113102 
L 126.298507 36.961445 
L 126.616059 36.2559 
L 126.933611 36.664808 
L 127.251163 37.243702 
L 127.568715 36.653912 
L 127.886267 36.794811 
L 128.203819 38.516358 
L 128.521371 39.237716 
L 128.838922 38.883852 
L 129.156474 39.182031 
L 129.474026 39.811232 
L 129.791578 39.886723 
L 130.10913 39.824801 
L 130.426682 39.838293 
L 130.744234 39.706437 
L 131.061786 39.729319 
L 131.379338 39.83714 
L 131.69689 39.575556 
L 132.014442 39.536251 
L 132.331994 39.791494 
L 132.649546 39.679673 
L 132.967098 39.625028 
L 133.28465 39.714792 
L 133.602202 39.520224 
L 133.919754 39.531972 
L 134.237306 39.854408 
L 134.554857 39.904891 
L 134.872409 39.94688 
L 135.189961 39.92788 
L 135.507513 39.966598 
L 135.825065 39.981132 
L 136.142617 39.966598 
L 136.460169 39.901277 
L 136.777721 39.906103 
L 137.095273 40.028278 
L 137.412825 39.884275 
L 137.730377 39.782859 
L 138.047929 39.948463 
L 138.365481 39.969086 
L 138.683033 39.900051 
L 139.000585 39.957988 
L 139.318137 39.718412 
L 139.635689 39.425246 
L 139.953241 39.448419 
L 140.270792 39.427717 
L 140.588344 39.295754 
L 140.905896 39.271613 
L 141.223448 39.758212 
L 141.541 40.033212 
L 141.858552 40.033212 
L 142.176104 40.033212 
L 142.493656 40.033212 
L 142.811208 40.011411 
L 143.12876 39.901259 
L 143.446312 39.866138 
L 143.763864 39.924698 
L 144.081416 39.808002 
L 144.398968 39.85194 
L 144.71652 40.008545 
L 145.034072 39.92546 
L 145.351624 39.827268 
L 145.669176 39.776521 
L 145.986727 39.782861 
L 146.304279 39.712367 
L 146.621831 39.632427 
L 146.939383 39.720848 
L 147.256935 39.737247 
L 147.574487 39.535602 
L 147.892039 39.668201 
L 148.209591 39.846763 
L 148.527143 39.763137 
L 148.844695 39.850707 
L 149.162247 39.909728 
L 149.479799 39.645992 
L 149.797351 39.392705 
L 150.114903 39.604063 
L 150.432455 39.366063 
L 150.750007 38.51391 
L 151.067559 38.846633 
L 151.385111 39.250129 
L 151.702662 38.638394 
L 152.020214 39.130509 
L 152.337766 39.771671 
L 152.655318 39.860577 
L 152.97287 39.643529 
L 153.290422 39.653039 
L 153.607974 39.727387 
L 153.925526 39.694196 
L 154.243078 39.588032 
L 154.56063 39.465375 
L 154.878182 39.495541 
L 155.195734 39.21835 
L 155.513286 38.898664 
L 155.830838 39.171128 
L 156.14839 39.017044 
L 156.465942 39.111795 
L 156.783494 39.549808 
L 157.101046 39.621324 
L 157.418597 39.852827 
L 157.736149 39.92593 
L 158.053701 39.961763 
L 158.371253 39.854408 
L 158.688805 39.745045 
L 159.006357 39.676813 
L 159.323909 39.461721 
L 159.641461 39.335199 
L 159.959013 39.327322 
L 160.276565 39.406747 
L 160.594117 39.637293 
L 160.911669 39.639829 
L 161.229221 39.786585 
L 161.546773 39.890361 
L 161.864325 39.896343 
L 162.181877 39.880672 
L 162.499429 39.977706 
L 162.816981 39.86977 
L 163.134532 39.855635 
L 163.452084 39.866138 
L 163.769636 39.844539 
L 164.087188 39.770459 
L 164.40474 39.659555 
L 164.722292 39.81648 
L 165.039844 39.796428 
L 165.357396 39.878249 
L 165.674948 39.993737 
L 165.9925 39.966598 
L 166.310052 40.007778 
L 166.627604 40.025811 
L 166.945156 39.966598 
L 167.262708 39.876611 
L 167.58026 39.879461 
L 167.897812 39.776692 
L 168.215364 39.763213 
L 168.532916 39.879078 
L 168.850467 39.787438 
L 169.168019 39.610222 
L 169.485571 39.731729 
L 169.803123 39.990041 
L 170.120675 39.843296 
L 170.438227 39.723266 
L 170.755779 39.923457 
L 171.073331 40.000511 
L 171.390883 39.908677 
L 171.708435 39.902471 
L 172.025987 39.966598 
L 172.343539 40.0211 
L 172.661091 40.033212 
L 172.978643 39.996889 
L 173.296195 39.900051 
L 173.613747 39.958151 
L 173.931299 40.033212 
L 174.248851 39.954279 
L 174.566402 39.906101 
L 174.883954 39.980167 
L 175.201506 39.966598 
L 175.519058 39.948112 
L 175.83661 39.966598 
L 176.154162 40.02211 
L 176.471714 40.033212 
L 176.789266 39.986335 
L 177.106818 39.966598 
L 177.42437 40.024577 
L 177.741922 39.903661 
L 178.059474 39.774223 
L 178.377026 39.887706 
L 178.694578 39.860066 
L 179.01213 39.8211 
L 179.329682 39.889149 
L 179.647234 39.886481 
L 179.964786 39.788629 
L 180.282337 39.798895 
L 180.599889 39.929081 
L 180.917441 39.853174 
L 181.234993 39.815269 
L 181.552545 39.863043 
L 181.870097 39.904891 
L 182.187649 39.921001 
L 182.505201 39.966598 
L 182.822753 39.94967 
L 183.140305 39.859342 
L 183.457857 39.849182 
L 183.775409 39.961687 
L 184.092961 39.833436 
L 184.410513 39.806286 
L 184.728065 39.972654 
L 185.045617 39.912367 
L 185.363169 39.651826 
L 185.680721 39.708901 
L 185.998272 39.845538 
L 186.315824 39.627491 
L 186.633376 39.653389 
L 186.950928 39.832225 
L 187.26848 39.737243 
L 187.586032 39.735367 
L 187.903584 39.951802 
L 188.221136 39.91094 
L 188.538688 39.718764 
L 188.85624 39.419347 
L 189.173792 39.385778 
L 189.491344 39.525903 
L 189.808896 38.918376 
L 190.126448 38.549997 
L 190.444 38.724764 
L 190.761552 39.240257 
L 191.079104 38.690447 
L 191.396656 38.74575 
L 191.714207 39.432669 
L 192.031759 39.758213 
L 192.349311 39.680878 
L 192.666863 39.642296 
L 192.984415 39.88549 
L 193.301967 39.595414 
L 193.619519 39.653016 
L 193.937071 39.962907 
L 194.254623 39.697828 
L 194.572175 39.611448 
L 194.889727 39.876591 
L 195.207279 40.016256 
L 195.524831 39.809994 
L 195.842383 39.661517 
L 196.159935 39.829736 
L 196.477487 39.924234 
L 196.795039 39.912356 
L 197.112591 39.784989 
L 197.430142 39.867966 
L 197.747694 39.88186 
L 198.065246 39.628734 
L 198.382798 39.68572 
L 198.70035 39.813702 
L 199.017902 39.59912 
L 199.335454 39.65908 
L 199.653006 39.754498 
L 199.970558 39.646983 
L 200.28811 39.446204 
L 200.605662 39.071846 
L 200.923214 39.005936 
L 201.240766 38.927763 
L 201.558318 35.662732 
L 201.87587 32.974336 
L 202.193422 32.240587 
L 202.510974 30.052722 
L 202.828526 29.541084 
L 203.146077 32.960771 
L 203.463629 35.93834 
L 203.781181 37.325092 
L 204.098733 38.438613 
L 204.416285 38.998545 
L 204.733837 38.697708 
L 205.051389 38.860433 
L 205.368941 38.662608 
L 205.686493 38.653254 
L 206.004045 38.346591 
L 206.321597 38.066244 
L 206.639149 38.512471 
L 206.956701 37.992261 
L 207.274253 37.84057 
L 207.591805 38.438618 
L 207.909357 36.474174 
L 208.226909 33.59184 
L 208.544461 33.907879 
L 208.862012 33.105103 
L 209.179564 32.705507 
L 209.497116 35.081096 
L 209.814668 36.299071 
L 210.13222 37.609221 
L 210.449772 38.527468 
L 210.767324 38.534266 
L 211.084876 39.092275 
L 211.402428 38.650787 
L 211.71998 38.219454 
L 212.037532 38.611335 
L 212.355084 36.988081 
L 212.672636 36.119017 
L 212.990188 36.834318 
L 213.30774 36.961298 
L 213.625292 35.044785 
L 213.942844 35.234805 
L 214.260396 36.089686 
L 214.577947 34.152051 
L 214.895499 35.337791 
L 215.213051 36.121474 
L 215.530603 35.466135 
z
" clip-path="url(#p833873ebd4)" style="fill: #2980b9"/>
   </g>
   <g id="patch_78">
    <path d="M 97.171587 162.169392 
L 97.202204 162.169392 
L 97.202204 174.760751 
L 97.171587 174.760751 
z
" clip-path="url(#p833873ebd4)" style="fill: #1f77b4; stroke: #ff0000; stroke-linejoin: miter"/>
   </g>
   <g id="text_1">
    <text style="font-size: 8px; font-family: 'DejaVu Sans', 'Bitstream Vera Sans', 'Computer Modern Sans Serif', 'Lucida Grande', 'Verdana', 'Geneva', 'Lucid', 'Arial', 'Helvetica', 'Avant Garde', sans-serif; text-anchor: middle" x="136.460169" y="183.357773" transform="rotate(-0 136.460169 183.357773)">chr9</text>
   </g>
   <g id="text_2">
    <text style="font-size: 8px; font-family: 'DejaVu Sans', 'Bitstream Vera Sans', 'Computer Modern Sans Serif', 'Lucida Grande', 'Verdana', 'Geneva', 'Lucid', 'Arial', 'Helvetica', 'Avant Garde', sans-serif; text-anchor: middle" x="60.765936" y="141.603494" transform="rotate(-0 60.765936 141.603494)">ARHGEF39</text>
   </g>
   <g id="text_3">
    <text style="font-size: 8px; font-family: 'DejaVu Sans', 'Bitstream Vera Sans', 'Computer Modern Sans Serif', 'Lucida Grande', 'Verdana', 'Geneva', 'Lucid', 'Arial', 'Helvetica', 'Avant Garde', sans-serif; text-anchor: middle" x="136.457254" y="141.603494" transform="rotate(-0 136.457254 141.603494)">CA9</text>
   </g>
   <g id="text_4">
    <text style="font-size: 8px; font-family: 'DejaVu Sans', 'Bitstream Vera Sans', 'Computer Modern Sans Serif', 'Lucida Grande', 'Verdana', 'Geneva', 'Lucid', 'Arial', 'Helvetica', 'Avant Garde', sans-serif; text-anchor: middle" x="185.907477" y="141.603494" transform="rotate(-0 185.907477 141.603494)">TPM2</text>
   </g>
   <g id="text_5">
    <text style="font-size: 7px; font-family: 'DejaVu Sans', 'Bitstream Vera Sans', 'Computer Modern Sans Serif', 'Lucida Grande', 'Verdana', 'Geneva', 'Lucid', 'Arial', 'Helvetica', 'Avant Garde', sans-serif; text-anchor: end" x="55.087483" y="116.253791" transform="rotate(-0 55.087483 116.253791)">G361 RW555-2</text>
   </g>
   <g id="text_6">
    <text style="font-size: 6px; font-family: 'DejaVu Sans', 'Bitstream Vera Sans', 'Computer Modern Sans Serif', 'Lucida Grande', 'Verdana', 'Geneva', 'Lucid', 'Arial', 'Helvetica', 'Avant Garde', sans-serif; text-anchor: end" x="56.079833" y="106.289933" transform="rotate(-0 56.079833 106.289933)">3.7</text>
   </g>
   <g id="text_7">
    <text style="font-size: 6px; font-family: 'DejaVu Sans', 'Bitstream Vera Sans', 'Computer Modern Sans Serif', 'Lucida Grande', 'Verdana', 'Geneva', 'Lucid', 'Arial', 'Helvetica', 'Avant Garde', sans-serif; text-anchor: end" x="56.079833" y="125.665775" transform="rotate(-0 56.079833 125.665775)">0</text>
   </g>
   <g id="text_8">
    <text style="font-size: 7px; font-family: 'DejaVu Sans', 'Bitstream Vera Sans', 'Computer Modern Sans Serif', 'Lucida Grande', 'Verdana', 'Geneva', 'Lucid', 'Arial', 'Helvetica', 'Avant Garde', sans-serif; text-anchor: end" x="55.087483" y="87.293666" transform="rotate(-0 55.087483 87.293666)">G361 RW555-2</text>
   </g>
   <g id="text_9">
    <text style="font-size: 6px; font-family: 'DejaVu Sans', 'Bitstream Vera Sans', 'Computer Modern Sans Serif', 'Lucida Grande', 'Verdana', 'Geneva', 'Lucid', 'Arial', 'Helvetica', 'Avant Garde', sans-serif; text-anchor: end" x="56.079833" y="77.329808" transform="rotate(-0 56.079833 77.329808)">3.7</text>
   </g>
   <g id="text_10">
    <text style="font-size: 6px; font-family: 'DejaVu Sans', 'Bitstream Vera Sans', 'Computer Modern Sans Serif', 'Lucida Grande', 'Verdana', 'Geneva', 'Lucid', 'Arial', 'Helvetica', 'Avant Garde', sans-serif; text-anchor: end" x="56.079833" y="96.70565" transform="rotate(-0 56.079833 96.70565)">0</text>
   </g>
   <g id="text_11">
    <text style="font-size: 7px; font-family: 'DejaVu Sans', 'Bitstream Vera Sans', 'Computer Modern Sans Serif', 'Lucida Grande', 'Verdana', 'Geneva', 'Lucid', 'Arial', 'Helvetica', 'Avant Garde', sans-serif; text-anchor: end" x="55.087483" y="58.333541" transform="rotate(-0 55.087483 58.333541)">G361 RW555-2</text>
   </g>
   <g id="text_12">
    <text style="font-size: 6px; font-family: 'DejaVu Sans', 'Bitstream Vera Sans', 'Computer Modern Sans Serif', 'Lucida Grande', 'Verdana', 'Geneva', 'Lucid', 'Arial', 'Helvetica', 'Avant Garde', sans-serif; text-anchor: end" x="56.079833" y="48.369682" transform="rotate(-0 56.079833 48.369682)">3.7</text>
   </g>
   <g id="text_13">
    <text style="font-size: 6px; font-family: 'DejaVu Sans', 'Bitstream Vera Sans', 'Computer Modern Sans Serif', 'Lucida Grande', 'Verdana', 'Geneva', 'Lucid', 'Arial', 'Helvetica', 'Avant Garde', sans-serif; text-anchor: end" x="56.079833" y="67.745525" transform="rotate(-0 56.079833 67.745525)">0</text>
   </g>
   <g id="text_14">
    <text style="font-size: 7px; font-family: 'DejaVu Sans', 'Bitstream Vera Sans', 'Computer Modern Sans Serif', 'Lucida Grande', 'Verdana', 'Geneva', 'Lucid', 'Arial', 'Helvetica', 'Avant Garde', sans-serif; text-anchor: end" x="55.087483" y="29.373416" transform="rotate(-0 55.087483 29.373416)">G361 RW555-1</text>
   </g>
   <g id="text_15">
    <text style="font-size: 6px; font-family: 'DejaVu Sans', 'Bitstream Vera Sans', 'Computer Modern Sans Serif', 'Lucida Grande', 'Verdana', 'Geneva', 'Lucid', 'Arial', 'Helvetica', 'Avant Garde', sans-serif; text-anchor: end" x="56.079833" y="19.409557" transform="rotate(-0 56.079833 19.409557)">3.7</text>
   </g>
   <g id="text_16">
    <text style="font-size: 6px; font-family: 'DejaVu Sans', 'Bitstream Vera Sans', 'Computer Modern Sans Serif', 'Lucida Grande', 'Verdana', 'Geneva', 'Lucid', 'Arial', 'Helvetica', 'Avant Garde', sans-serif; text-anchor: end" x="56.079833" y="38.7854" transform="rotate(-0 56.079833 38.7854)">0</text>
   </g>
  </g>
 </g>
 <defs>
  <clipPath id="p833873ebd4">
   <rect x="37.225186" y="1" width="188.546467" height="196.425197"/>
  </clipPath>
 </defs>
</svg>
